<?xml version="1.0" encoding="utf-8"?>
<!-- Generator: Adobe Illustrator 18.1.1, SVG Export Plug-In . SVG Version: 6.00 Build 0)  -->
<svg version="1.1" id="Layer_1" xmlns="http://www.w3.org/2000/svg" xmlns:xlink="http://www.w3.org/1999/xlink" x="0px" y="0px"
	 viewBox="0 0 1366 1068" style="enable-background:new 0 0 1366 1068;" xml:space="preserve">
<style type="text/css">
	.st0{fill:#FEFEFE;}
	.st1{fill:#F1F1F1;}
	.st2{fill:#E3E3E3;}
	.st3{fill:#F2F2F2;}
	.st4{fill:#4485F2;}
	.st5{fill:#4285F4;}
	.st6{fill:#4D8FFD;}
	.st7{fill:#FABC06;}
	.st8{fill:#EA4436;}
	.st9{fill:#36A854;}
	.st10{fill:#625B6B;}
	.st11{fill:#584E5D;}
	.st12{fill:#4439B3;}
	.st13{fill:#665F63;}
	.st14{fill:#717993;}
	.st15{fill:#463B49;}
	.st16{fill:#A8A59A;}
	.st17{fill:#4323B0;}
	.st18{fill:#413344;}
	.st19{fill:#453639;}
	.st20{fill:#413439;}
	.st21{fill:#3A3442;}
	.st22{fill:#4A3F4B;}
	.st23{fill:#4A3C46;}
	.st24{fill:#292937;}
	.st25{fill:#5B7081;}
	.st26{fill:#5D5D6F;}
	.st27{fill:#4028AE;}
	.st28{fill:#463939;}
	.st29{fill:#4B3537;}
	.st30{fill:#4F4143;}
	.st31{fill:#6A5C65;}
	.st32{fill:#645966;}
	.st33{fill:#524148;}
	.st34{fill:#524862;}
	.st35{fill:#443238;}
	.st36{fill:#D9DAC9;}
	.st37{fill:#5B474F;}
	.st38{fill:#3D1FAE;}
	.st39{fill:#595258;}
	.st40{fill:#4F505D;}
	.st41{fill:#3F33B2;}
	.st42{fill:#384ABA;}
	.st43{fill:#737373;}
	.st44{fill:#482C30;}
	.st45{fill:#4F454B;}
	.st46{fill:#594F58;}
	.st47{fill:#5025AD;}
	.st48{fill:#2316AE;}
	.st49{fill:#1A2CBB;}
	.st50{fill:#4B2F35;}
	.st51{fill:#344273;}
	.st52{fill:#31344C;}
	.st53{fill:#5822AD;}
	.st54{fill:#4F2D2F;}
	.st55{fill:#5C474A;}
	.st56{fill:#7CB9E2;}
	.st57{fill:#55A0CF;}
	.st58{fill:#3E30B3;}
	.st59{fill:#1A39BF;}
	.st60{fill:#784D4F;}
	.st61{fill:#899DC3;}
	.st62{fill:#4C6698;}
	.st63{fill:#2D2A43;}
	.st64{fill:#713F3F;}
	.st65{fill:#432C32;}
	.st66{fill:#BE6E3F;}
	.st67{fill:#A54422;}
	.st68{fill:#243DA5;}
	.st69{fill:#4D616E;}
	.st70{fill:#794445;}
	.st71{fill:#A95229;}
	.st72{fill:#47A0D5;}
	.st73{fill:#DCA74F;}
	.st74{fill:#A84D26;}
	.st75{fill:#412229;}
	.st76{fill:#683F49;}
	.st77{fill:#6F3F3F;}
	.st78{fill:#86787A;}
	.st79{fill:#2755AF;}
	.st80{fill:#8F7572;}
	.st81{fill:#635A56;}
	.st82{fill:#D69B46;}
	.st83{fill:#898396;}
	.st84{fill:#22394B;}
	.st85{fill:#624851;}
	.st86{fill:#2D1CAD;}
	.st87{fill:#563F3F;}
	.st88{fill:#515156;}
	.st89{fill:#1A0DAA;}
	.st90{fill:#3F3F3F;}
	.st91{fill:#442222;}
	.st92{fill:#533F3F;}
	.st93{fill:#673F3F;}
	.st94{fill:#222222;}
	.st95{fill:#1A0DAB;}
	.st96{fill:#857E7C;}
	.st97{fill:#7F797E;}
	.st98{fill:#7E7C83;}
	.st99{fill:#757275;}
	.st100{fill:#797679;}
	.st101{fill:#7A747A;}
	.st102{fill:#7D777C;}
	.st103{fill:#777175;}
	.st104{fill:#7A7378;}
	.st105{fill:#7D7377;}
	.st106{fill:#7A7374;}
	.st107{fill:#7B7578;}
	.st108{fill:#79777D;}
	.st109{fill:#837B86;}
	.st110{fill:#7F7981;}
	.st111{fill:#736D6E;}
	.st112{fill:#807B80;}
	.st113{fill:#847A7B;}
	.st114{fill:#857D7D;}
	.st115{fill:#756E75;}
	.st116{fill:#72737C;}
	.st117{fill:#727172;}
	.st118{fill:#867E80;}
	.st119{fill:#767677;}
	.st120{fill:#D2D0C8;}
	.st121{fill:#727074;}
	.st122{fill:#7B7174;}
	.st123{fill:#696669;}
	.st124{fill:#B9D0DD;}
	.st125{fill:#F1F0EC;}
	.st126{fill:#726667;}
	.st127{fill:#676671;}
	.st128{fill:#9390A0;}
	.st129{fill:#77757E;}
	.st130{fill:#837777;}
	.st131{fill:#848185;}
	.st132{fill:#817F80;}
	.st133{fill:#7E797D;}
	.st134{fill:#827E7F;}
	.st135{fill:#908782;}
	.st136{fill:#8D898A;}
	.st137{fill:#838286;}
	.st138{fill:#827B82;}
	.st139{fill:#847F7E;}
	.st140{fill:#7D8CA1;}
	.st141{fill:#907D78;}
	.st142{fill:#AB9787;}
	.st143{fill:#D8D0BE;}
	.st144{fill:#7E8194;}
	.st145{fill:#828082;}
	.st146{fill:#7F7D7E;}
	.st147{fill:#828182;}
	.st148{fill:#919295;}
	.st149{fill:#7B7F8B;}
	.st150{fill:#7F7E82;}
	.st151{fill:#7D7D7F;}
	.st152{fill:#7D7779;}
	.st153{fill:#EBEEFC;}
	.st154{fill:#F0F5FD;}
	.st155{fill:#F0F2FC;}
	.st156{fill:#D8E4FB;}
	.st157{fill:#FDFEFE;}
	.st158{fill:#FEFEFD;}
	.st159{fill:#FEFDFD;}
	.st160{fill:#FEFBFB;}
	.st161{fill:#EFF0F3;}
	.st162{fill:#C3CEC7;}
	.st163{fill:#F0F2EB;}
	.st164{fill:#DFE3E4;}
	.st165{fill:#DBE1DB;}
	.st166{fill:#DDDDD4;}
	.st167{fill:#D0DDDD;}
	.st168{fill:#F5F8F3;}
	.st169{fill:#D5DDD9;}
	.st170{fill:#E2E1DA;}
	.st171{fill:#D3DFDD;}
	.st172{fill:#E1EBE9;}
	.st173{fill:#EEF8F3;}
	.st174{fill:#EBEAE3;}
	.st175{fill:#D4D3D6;}
	.st176{fill:#E7ECE4;}
	.st177{fill:#EEEFE3;}
	.st178{fill:#CAD3D9;}
	.st179{fill:#C8D1D5;}
	.st180{fill:#DBE8EC;}
	.st181{fill:#E4EEEE;}
	.st182{fill:#EFECE6;}
	.st183{fill:#D0D6CE;}
	.st184{fill:#C8D5D4;}
	.st185{fill:#B9D0DF;}
	.st186{fill:#DCDDD5;}
	.st187{fill:#E2E0D6;}
	.st188{fill:#DFDFD4;}
	.st189{fill:#DDEAED;}
	.st190{fill:#D0D0C8;}
	.st191{fill:#DBDCD6;}
	.st192{fill:#F2F1E7;}
	.st193{fill:#D3DBD9;}
	.st194{fill:#F1F2F1;}
	.st195{fill:#508AF5;}
	.st196{fill:#4A8AF5;}
	.st197{fill:#F1594D;}
	.st198{fill:#060606;}
	.st199{fill:#F7BC22;}
	.st200{fill:#42AB5B;}
</style>
<g>
	<g>
		<path class="st0" d="M1,1028C1,685.6667,1,343.3333,1,1c455.3333,0,910.6667,0,1366,0c0,342.3333,0,684.6667,0,1027
			c-1.3302,1.2262-2.9849,1.3612-4.6719,1.3923c-1.8328,0.0338-3.6656,0.025-5.4985,0.025
			c-448.558,0.0006-897.1161,0.0026-1345.6741-0.0426C7.7527,1029.3744,4.1238,1030.3445,1,1028z"/>
		<path class="st1" d="M1367,1029c0,13.3334,0,26.6666,0,40c-455.3333,0-910.6666,0-1366,0c0-13.3334,0-26.6666,0-40
			c1.7323-0.9177,3.6021-0.4625,5.4005-0.4626c451.733-0.0229,903.466-0.0228,1355.199,0.0001
			C1363.3979,1028.5376,1365.2677,1028.0823,1367,1029z"/>
		<path class="st2" d="M1367,1029c-455.3333,0-910.6666,0-1366,0c0-0.3334,0-0.6666,0-1c455.3333,0,910.6667,0,1366,0
			C1367,1028.3334,1367,1028.6666,1367,1029z"/>
		<path class="st1" d="M750.9813,393.0003c21.6586,0,43.3173,0,64.9759,0c1.1663,0,2.335-0.0481,3.4981,0.013
			c1.5338,0.0806,2.4366,0.928,2.5295,2.4749c0.0698,1.162,0.0148,2.3316,0.0148,3.4979c0.0002,8.4969-0.1348,16.9969,0.0662,25.489
			c0.0817,3.4522-0.8339,4.6287-4.5724,4.5917c-15.8259-0.1566-31.6542-0.0664-47.4817-0.0664c-27.823,0-55.6461,0-83.4691,0
			c-0.9996,0-2.0007,0.0348-2.9986-0.0066c-2.9039-0.1205-3.5089-0.6202-3.5242-3.48c-0.0519-9.6628-0.0536-19.3263,0.0009-28.989
			c0.017-3.0097,0.6094-3.5008,3.9854-3.5119c10.3294-0.0342,20.659-0.0124,30.9885-0.0124
			C726.9902,393.0003,738.9857,393.0003,750.9813,393.0003z"/>
		<path class="st3" d="M608.572,429.0003c-18.8259,0-37.6517,0-56.4775,0c-0.9996,0-1.9999-0.0242-2.9987,0.005
			c-2.0319,0.0593-3.1263-0.8392-3.0972-2.9396c0.007-0.4997,0.0008-0.9996,0.0008-1.4994
			c0.0002-8.8298-0.0096-17.6597,0.0045-26.4895c0.0079-5.0279,0.0403-5.069,4.9483-5.072
			c18.6592-0.0114,37.3185-0.0046,55.9777-0.0046c19.6588,0,39.3177,0,58.9765,0c0.9996,0,1.9999,0.0241,2.9987-0.0051
			c2.0326-0.0594,3.1259,0.8403,3.0958,2.9407c-0.0071,0.4997-0.0009,0.9996-0.0009,1.4994
			c0.0001,8.8298-0.0914,17.661,0.0421,26.4888c0.0596,3.9427-0.0719,5.1612-4.9937,5.1288
			C647.5569,428.9248,628.0643,429.0003,608.572,429.0003z"/>
		<path class="st4" d="M1302.4934,16.9997c9.9918,0,19.9835-0.0184,29.9753,0.0086c4.3171,0.0117,4.5043,0.2031,4.5228,4.4906
			c0.031,7.1606,0.0408,14.3217-0.0039,21.4822c-0.0221,3.5431-0.4634,4.0017-4.0057,4.0066
			c-20.3167,0.0277-40.6332,0.0276-60.9498,0.0002c-3.5742-0.0048-3.9977-0.4404-4.0194-3.9867
			c-0.0449-7.327-0.0439-14.6547,0.0007-21.9818c0.0217-3.5426,0.4634-3.9923,4.005-4.0059
			C1282.1766,16.9744,1292.3351,16.9997,1302.4934,16.9997z"/>
		<path class="st5" d="M605.9844,240.0533c-7.7361,0-15.1489,0-22.7694,0c0-3.1552,0-5.8915,0-8.8428c10.5576,0,20.961,0,31.6559,0
			c0.5493,7.5662,0.8965,15.0061-3.3032,21.6358c-5.6918,8.985-13.5553,14.679-24.5864,15.2246
			c-6.5165,0.3224-12.954-0.0381-18.7951-3.1504c-10.424-5.554-17.4359-13.6898-19.3008-25.8376
			c-2.2996-14.9783,4.045-25.8052,15.7583-34.1712c5.3661-3.8326,11.7754-5.6101,18.0815-5.5846
			c8.7725,0.0353,17.239,2.2488,23.4612,9.4273c-2.1505,2.0055-4.1826,3.9006-6.5449,6.1036
			c-1.3862-0.6831-3.1951-2.1131-5.1684-3.2244c-8.9316-5.03-20.8861-3.1179-28.3627,4.1168
			c-4.552,4.4047-7.0872,10.0138-7.3201,16.7606c-0.2838,8.2205,2.3441,14.8497,8.3904,20.2799
			c9.8508,8.8468,26.0681,8.1975,34.558-1.9866C604.2526,247.7888,604.9681,244.1525,605.9844,240.0533z"/>
		<path class="st5" d="M748.3314,264.1133c-1.1982-0.1408-1.6319,0.9994-2.4603,1.4733c-6.4226,3.6739-12.705,3.4604-19.1979-0.1187
			c-7.3595-4.0567-10.6516-10.6897-11.3281-18.4235c-0.4044-4.6237,0.9981-9.4974,3.9028-13.4621
			c2.7717-3.7831,6.1943-6.9745,10.7588-8.4809c6.7241-2.2191,12.9996-1.5398,18.3846,3.5731
			c1.1141-0.91,0.1567-2.2117,0.9561-3.4474c2.5198-0.4933,5.2922-0.132,7.8623-0.1912c1.158,0.9157,0.7734,1.991,0.7751,2.929
			c0.0223,12.8165,0.0492,25.6332-0.0132,38.4494c-0.0235,4.8325-1.1421,9.3752-3.8938,13.4893
			c-3.4893,5.2166-8.4901,7.6168-14.5278,8.1051c-5.5569,0.4494-10.7473-0.3773-15.437-3.907
			c-3.038-2.2865-4.9229-5.244-6.7521-8.4831c2.2286-1.9868,5.1577-2.4812,8.0172-3.6912c2.3176,2.8029,4.1131,6.5849,8.3054,7.0063
			c3.0735,0.3089,6.2629,0.7996,9.2484-0.8643C747.4762,275.5367,749.6184,270.1458,748.3314,264.1133z"/>
		<path class="st6" d="M399.108,360.7156c0-13.2381,0-26.1925,0-39.1262c4.1773-0.8057,572.4919-1.1497,585.3226-0.3749
			c0.7486,3.8746,0.9752,28.9664,0.3369,39.501C789.7132,360.7156,594.6414,360.7156,399.108,360.7156z"/>
		<path class="st7" d="M689.2474,268.1113c-12.1406,0.7529-22.0812-9.6563-22.0798-21.6672
			c0.0016-13.2479,10.2836-22.583,22.5825-22.449c12.0135,0.1309,22.0707,9.2996,22.0803,22.4515
			C711.839,258.24,702.1018,269.0346,689.2474,268.1113z"/>
		<path class="st8" d="M641.6639,268.1229c-12.8082,0.864-22.6252-10.0022-22.4943-21.8889
			c0.1454-13.1997,10.3138-22.2757,22.4125-22.2387c12.0104,0.0367,22.218,9.1426,22.2421,22.406
			C663.8461,258.524,653.8175,268.876,641.6639,268.1229z"/>
		<path class="st8" d="M818.0582,240.4683c-5.1794,2.2423-9.9788,4.3794-14.8261,6.4018
			c-4.6904,1.9569-9.4301,3.7958-14.1303,5.6793c1.0328,4.3031,5.0901,7.4311,9.845,7.2633
			c4.5325-0.1599,8.079-2.5457,11.0446-6.1361c2.6549,1.3431,5.0154,2.7538,7.201,4.9494
			c-2.9233,5.0624-7.5064,8.1196-12.8955,9.081c-8.7206,1.5558-17.7193,0.3092-24.0212-9.8631
			c-7.524-12.145-1.4541-29.9107,12.4922-33.1902c9.7803-2.2998,16.7527,1.078,22.3182,9.6443
			c0.2714,0.4177,0.5803,0.8202,0.7877,1.2686C816.5624,237.0547,817.2123,238.5605,818.0582,240.4683z"/>
		<path class="st9" d="M772.7177,266.8914c-2.9084,0-5.5286,0-8.4353,0c0-21.5117,0-42.9148,0-64.6068c2.6608,0,5.4007,0,8.4353,0
			C772.7177,223.6204,772.7177,245.0234,772.7177,266.8914z"/>
		<path class="st10" d="M638.2402,465.3392c-2.0285-1.999-0.3453-4.3373-1.6414-5.9612c-2.9548,0.9546-0.5744,3.9878-2.2896,5.6642
			c-2.5076-1.2944-0.204-4.0773-1.7072-5.6204c-2.9423,0.8957-0.6124,3.9099-2.3198,5.6495
			c-2.1775-2.0789-1.2328-4.294-0.6998-6.3791c2.3852-1.6918,4.8297,0.1123,7.1485-0.6925
			c1.2304-0.4271,2.1688,0.8729,2.2489,2.0986C639.0844,461.6969,639.4872,463.3957,638.2402,465.3392z"/>
		<path class="st11" d="M826.9275,459.7948c-0.3065-1.7761,0.5717-3.1559,1.4871-4.71c2.426,1.614,1.9417,4.4208,3.1252,6.6306
			c0.574-2.1066,1.5425-3.9572,1.4799-6.4576c1.4068,1.0191,2.6986,0.1327,3.9051,0.4148
			c-0.1544,1.9731-1.5405,0.9375-2.2736,1.3159c-1.4049,2.5258-1.2305,5.6741-2.8751,8.2189
			c-2.4548-1.5749-1.4864-4.5604-3.3355-6.0846c-0.6893,0.8933-0.1588,2.358-1.3695,3.0286
			C826.3593,461.4064,826.4514,460.6123,826.9275,459.7948z"/>
		<path class="st12" d="M544.9219,460.2012c0.0833-2.988,2.2479-5.3324,4.7599-5.1549c2.4987,0.1765,4.4623,2.702,4.364,5.6125
			c-0.0912,2.705-2.063,4.5165-4.8069,4.4164C546.5043,464.9754,544.8412,463.0977,544.9219,460.2012z"/>
		<path class="st13" d="M1125.1785,30.1796c-1.5519-1.2249-2.5372-2.0026-3.5172-2.7761c-1.9994,0.5758-3.6799,1.3503-3.6294,3.8596
			c0.0353,1.7513,1.0668,2.8142,2.4515,3.3994c1.5829,0.6688,2.8087,0.0124,3.3716-1.5108c-0.3518-1.535-1.902-0.5646-2.5834-1.7208
			c1.145-0.6713,2.2372-0.7329,3.4465-0.1009c0.715,1.8207,0.8829,3.6671-1.3282,4.4457c-2.5863,0.9106-4.8776,0.2848-6.3042-2.3202
			c-0.264-5.7769-0.264-5.7769,4.7406-7.4403C1123.2766,26.6143,1124.782,27.24,1125.1785,30.1796z"/>
		<path class="st14" d="M1174.2958,29.8788c1.1415-0.5966,2.2271-1.5716,3.6124-0.5476c1.0614,0.7846,1.2345,1.9007,1.1094,3.1021
			c-0.116,1.1123,0.4001,2.3184-0.6465,3.5419c-2.5504-1.23-0.3221-3.9398-1.7574-5.5914
			c-2.9381,0.8855-0.5557,4.1559-2.5219,5.7683c-1.9073-1.7729-0.3417-4.2132-1.3138-5.9911
			C1173.1938,29.5827,1173.6998,29.4886,1174.2958,29.8788z"/>
		<path class="st15" d="M711.2628,459.5635c0.8883-1.7254,2.4621-1.9244,4.0691-1.4554c1.5063,0.4396,1.7495,1.7857,1.6445,3.2241
			c-0.072,0.9865-0.0137,1.9825-0.0137,3.1611c-1.5298,0.9907-3.348,0.2939-4.9877,0.6151
			c-1.3223-3.3484-1.3223-3.3484,3.074-4.6797C714.3632,457.3841,712.2357,461.2539,711.2628,459.5635z"/>
		<path class="st16" d="M1192.005,38.0285c-1.9991,2.3436-3.3175-0.0184-4.8485-0.4609c-0.1633-1.2392,0.6683-1.979,0.1134-3.2908
			c-0.7631-1.8048-1.1041-4.2735,1.8151-5.1662c0.2839,0.3295,0.5227,0.689,0.7202,1.0747c0.4434,1.3388,0.2975,2.9179,1.5989,3.909
			C1192.8829,35.2101,1192.3375,36.6353,1192.005,38.0285z"/>
		<path class="st17" d="M579.2035,455.4163c1.2184,0.3902,0.7289,1.393,1.0593,2.0311c4.3411,1.1094,5.4139,2.274,4.7732,5.1845
			c-0.4442,2.018-1.5717,2.43-5.8325,2.0259C579.2035,461.6155,579.2035,458.5497,579.2035,455.4163z"/>
		<path class="st18" d="M756.0563,467.2181c0-3.3233,0-5.9499,0-8.4144c0.704-0.959,1.6324-0.817,2.3867-0.7865
			c2.5697,0.1039,3.434,0.9081,3.6128,3.0755c0.1895,2.2968-0.4138,3.6474-2.7531,3.8156
			C757.5817,465.0321,757.2527,466.1623,756.0563,467.2181z"/>
		<path class="st19" d="M645.962,463.4273c-1.1645,2.0389-2.8868,2.0872-4.6384,1.159c-1.8264-0.9677-1.6268-2.8489-1.2251-4.4391
			c0.4071-1.6118,1.7625-2.4455,3.4498-2.138c1.897,0.3459,2.8633,1.5215,2.4579,3.5625c-1.2893,1.2072-2.9585-0.1158-4.2771,0.7865
			C642.1783,465.955,644.8101,461.9066,645.962,463.4273z"/>
		<path class="st19" d="M605.361,462.4519c0.4137,0.4888,0.8307,0.9815,1.0753,1.2704c1.4125,0.6158,2.1137-1.4405,3.5089-0.3112
			c-1.0788,2.0305-2.7923,2.0424-4.4976,1.2504c-1.8812-0.8737-1.6946-2.7328-1.3911-4.3722
			c0.2682-1.4493,1.3829-2.2705,2.8477-2.3019c2.2897-0.0491,3.236,1.2672,3.2725,3.4381
			C608.7316,462.7917,606.8674,461.4599,605.361,462.4519z"/>
		<path class="st20" d="M813.0152,459.0877c3.4221-1.7641,4.0038-1.4885,5.0537,2.4522c-1.3778,1.2128-3.2181-0.0513-4.5945,0.8015
			c0.7844,3.133,2.8494,0.389,4.4169,0.7193c-0.7002,2.2894-2.3445,2.2313-3.8729,1.8598c-1.3837-0.3364-2.1565-1.4324-2.0605-2.958
			c0.041-0.6527,0.1254-1.3027,0.19-1.9539C812.3028,459.5752,812.5919,459.2683,813.0152,459.0877z"/>
		<path class="st21" d="M793.1883,461.9373c-2.0029,0.0996-3.4371,0.1709-4.9094,0.2441c0.8992,3.2524,2.9529,0.3632,4.3768,0.9274
			c-1.7095,1.907-2.7926,2.3527-4.1585,1.7225c-1.9133-0.8827-1.73-2.6147-1.6023-4.2466c0.1393-1.7809,1.3527-2.5963,2.9924-2.589
			C792.1206,458.0056,792.9964,459.4041,793.1883,461.9373z"/>
		<path class="st21" d="M771.9406,461.5517c-1.4476,1.1309-3.0783-0.0007-4.4286,0.7186c1.2776,1.5245,1.2776,1.5245,4.1055,0.8142
			c-0.5961,2.5664-2.461,2.1608-4.0768,1.7218c-1.5281-0.4152-2.2351-2.7806-1.584-4.7528c0.4701-1.424,1.5557-2.1926,3.0313-2.0614
			C771.14,458.1835,772.2552,459.3328,771.9406,461.5517z"/>
		<path class="st22" d="M723.9291,458.9457c-0.3333,0.9041-0.8906,1.4044-1.835,0.81c-0.712-0.4482-1.3473-1.0114-2.0948,0.3166
			c0.9462,1.3794,3.8835,0.3857,3.8979,3.0419c-0.2642,1.114-0.9988,1.856-2.3389,1.9617c-1.4126,0.1114-2.6633-0.0787-3.3595-1.542
			c1.127-1.8531,2.5588,1.6597,3.8078-0.4089c-0.553-1.8018-3.7041-0.5343-3.7763-3.0189c2.0354-2.6268,2.0354-2.6268,5.771-1.0492
			L723.9291,458.9457z"/>
		<path class="st23" d="M785.6432,459.4507c-1.4064,1.4042-2.1981-1.1532-3.5364,0.2759c0.3682,2.0666,4.0491,0.6019,3.8148,3.2986
			c-2.3749,2.7165-2.5602,2.7375-5.7021,0.5652c1.1173-1.9172,2.527,1.5915,3.7643-0.4519
			c-0.5073-1.8176-3.5521-0.6381-3.7635-2.9323C782.2977,457.2446,782.3512,457.2359,785.6432,459.4507z"/>
		<path class="st24" d="M843.1317,464.8717c0-3.1994,0-6.2432,0-9.6262c2.0972,0.1089,3.973-0.4741,6.2529,0.7208
			c-1.6413,1.7461-3.7924,0.2701-5.0904,1.4548c-0.4084,0.612-0.2183,1.2364-0.0551,1.8388
			c0.9659,1.2155,2.658-0.0673,3.6345,1.1145c-0.8421,1.4012-2.4829,0.0428-3.3941,0.9417
			C843.3462,462.253,844.8547,463.9607,843.1317,464.8717z"/>
		<path class="st25" d="M657.0119,464.8596c-2.8945-0.4726-1.3002-3.5736-2.6546-4.8618c-1.6426,0.1294-1.2206,1.2906-1.4395,2.1553
			c-0.2285,0.9031,0.911,2.3744-1.0049,2.6309c-0.61-2.2086-0.6849-4.4135,0.0466-6.6126c1.7233-1.0011,2.98,0.7609,4.5335,0.7653
			c0.4599-0.1788,0.9365-0.2439,1.4285-0.2102c1.0562,1.6628,0.2686,3.3017-0.0574,4.9485
			C657.6343,464.1078,657.3483,464.502,657.0119,464.8596z"/>
		<path class="st26" d="M1180.9955,32.9898c0.2062-1.9289,2.5292-0.2878,2.9939-1.7771c-0.83-2.8153-2.4626,0.846-3.3281-0.3331
			c-0.494-0.3059-0.4147-0.5-0.1055-0.8459c1.0109-1.1302,2.4025-1.4958,3.6235-0.9647c3.2412,1.4098,1.0149,4.3268,2.6547,7.4304
			c-2.7057-1.1268-4.4796,0.6091-5.921-1.3547c0.0824-0.1566,0.1647-0.3132,0.236-0.4641c0.4935-0.3853,0.9086-0.7851,0.1064-1.306
			C1181.2449,33.3716,1180.9955,32.9898,1180.9955,32.9898z"/>
		<path class="st27" d="M528.0504,464.1858c-2.7104,1.0462-3.8658,0.8796-4.7239-0.6812c-0.8302-1.51-0.329-2.87,1.6857-4.5742
			c0.1833,0.2263,0.3786,0.4415,0.5833,0.6486c-0.2315-0.178-0.4427-0.38-0.6647-0.5692c2.7748-1.5956,3.4351-1.1756,4.0273,2.5865
			c-1.3193,1.1657-3.1396-0.1899-4.4835,0.8404c0.8179,1.9858,2.1882,1.4266,3.5725,0.8028
			c0.1851,0.2096,0.2473,0.4197,0.1866,0.6302C528.1729,464.0804,528.1119,464.1858,528.0504,464.1858z"/>
		<path class="st28" d="M678.0845,464.0246c-1.4589,1.8419-2.9214,1.3084-4.1534-0.1668c-1.4695-1.7595-1.1489-2.9312,1.0729-4.938
			c0.1803,0.2238,0.3721,0.437,0.5729,0.6428c-0.2297-0.1741-0.4379-0.3738-0.6577-0.5597
			c1.9276-1.5938,2.0175-1.5757,4.3862,0.8817C680.5169,461.7418,677.7649,462.4303,678.0845,464.0246z"/>
		<path class="st29" d="M698.1321,461.7213c-0.0755,2.398-1.1041,3.4494-3.2632,3.3352c-2.0724-0.1096-2.9763-1.254-2.9321-3.712
			c0.0406-2.2579,1.239-3.4885,3.2949-3.3834C697.314,458.0675,698.2105,459.2297,698.1321,461.7213z"/>
		<path class="st29" d="M628.1326,461.6423c-0.0474,2.4655-0.9977,3.4854-3.181,3.4143c-2.0977-0.0683-3.0587-1.2202-3.0211-3.6215
			c0.0364-2.3212,1.1624-3.5335,3.2246-3.4719C627.1759,458.0237,628.1783,459.2624,628.1326,461.6423z"/>
		<path class="st30" d="M740.9298,463.2489c-2.4445,2.512-2.7308,2.5269-5.5301,0.1912c1.1068-1.6437,2.5838,1.8471,3.6608-0.2643
			c-3.1088-1.9837-3.8356-3.0304-2.9902-4.306c0.9563-1.4429,2.4073-1.1961,4.6013,0.7809
			c-1.1308,1.4104-2.2593-1.5585-3.5212,0.1737C737.6967,461.7008,740.9066,460.2476,740.9298,463.2489z"/>
		<path class="st31" d="M724.0013,459.0569c0.5161-0.9985,1.0322-1.9969,1.8841-3.6451c0.5492,1.7333,2.3845,2.1496,1.3018,4.2293
			c-0.8492,1.6311-0.3002,3.4277,0.6051,5.0288c-0.7504,0.5919-1.5044,0.524-2.2629,0.0151
			c-1.5144-1.6406,0.6718-4.3121-1.6004-5.7393L724.0013,459.0569z"/>
		<path class="st32" d="M670.8729,455.5988c3.1482,3.0591-0.7889,6.5695,2.0114,8.9204c-0.9147,0.7664-1.5451,0.4787-2.4758,0.2937
			C670.1934,461.8663,668.6588,458.8125,670.8729,455.5988z"/>
		<path class="st33" d="M799.9017,459.553c-1.4805,1.138-2.0592-0.3866-2.8609-0.48c-2.077,2.3669-2.077,2.3669-0.3867,4.7508
			c1.3445,0.2683,1.7418-1.4131,2.9813-1.4002c0.4415,0.3483,0.4695,0.8988,0.0976,1.2404
			c-1.8086,1.6612-3.4367,1.8823-4.7791,0.7427c-1.3854-1.1762-1.5152-4.0245-0.247-5.4251
			C796.0252,457.5257,797.0577,457.6284,799.9017,459.553z"/>
		<path class="st34" d="M596.3593,465.4166c-3.6216-1.9526-4.0129-3.8371-2.477-10.0234c0.6742,1.7714,2.6541,1.9873,1.4602,4.1657
			C594.4477,461.1914,594.9274,463.0022,596.3593,465.4166z"/>
		<path class="st35" d="M801.225,464.7505c-0.5105-2.4745-0.6057-4.5257,0.0859-6.6808c1.0481,0.9024,0.6617,1.9501,0.7424,2.8949
			c0.0811,0.9514-0.2463,2.0006,0.9082,2.8998c3.3206-0.5905,1.1834-3.8355,2.6481-5.7735c0.89,2.2959,0.4307,4.3777,0.4569,6.3721
			C804.4759,465.2483,803.0665,465.0949,801.225,464.7505z"/>
		<path class="st36" d="M678.0845,464.0246c-1.0305-0.4121-2.7083,0.6956-3.0745-1.3358c0.9511-1.4862,2.7082-0.0925,3.9785-1.1837
			c0.0827-0.4232,0.1998-1.0219,0.3168-1.6206c1.0513-0.1447,0.3987-2.0706,1.8638-1.7826
			c0.7695,2.2808,0.3918,4.5527-0.0526,6.8241c-0.6956-0.3127-1.3912-0.6254-2.0869-0.9382
			c-0.3829-0.3076-0.7327-0.2738-1.0496,0.1014L678.0845,464.0246z"/>
		<path class="st37" d="M826.9275,459.7948c0.0479,0.7856,0.0957,1.5711,0.1435,2.3567c-0.0448,1.1105,0.2823,2.3965-1.5718,2.8629
			c-1.721-2.9485-2.4056-6.1514-2.5437-10.0578c2.2236,2.1098,2.0266,4.4432,2.2885,6.7853
			C825.885,461.0006,826.4062,460.3977,826.9275,459.7948z"/>
		<path class="st35" d="M668.0734,464.4992c-1.5471,0.6469-2.9498,0.7264-4.6107,0.1869c-0.9274-2.0767-0.738-4.2499-0.2075-6.6941
			c1.6581,1.8212-0.0757,4.1321,1.5795,5.8578c3.4687-0.5104,1.3257-3.7698,2.7833-5.7922
			C668.4811,460.3908,668.0393,462.4554,668.0734,464.4992z"/>
		<path class="st38" d="M577.1093,464.6636c-1.8318,0.2994-3.4054,0.9626-4.9169-0.7814c-0.4995-1.7317-0.36-3.6407-0.0241-5.8898
			c1.3486,1.3224,0.7448,2.6541,0.9004,3.8292c0.1763,1.3321,0.7295,2.1746,2.2281,1.9669
			c1.5961-1.5665-0.1654-3.8995,1.4393-5.7018C577.3841,460.3444,577.0258,462.4268,577.1093,464.6636z"/>
		<path class="st39" d="M1142.1027,29.9122c2.2266,1.3982-0.0441,4.0647,1.9166,5.6718c-2.0336,0.4635-3.757,0.5662-5.6057,0.2828
			c-0.4949-1.1717-1.4023-2.3172,0.6274-2.9202c0.1754,0.2148,0.2629,0.3222,0.2629,0.3222
			c0.0569,0.1415-0.0625,0.0658-0.3582-0.2269c-0.0134-1.1557,0.8459-1.111,1.5903-1.0791
			c1.4293,0.0613,1.3439-0.9318,1.3903-1.8611L1142.1027,29.9122z"/>
		<path class="st40" d="M1195.953,35.1822c-1.8492-1.3706-1.4633-3.2877-0.6554-4.8007c0.8011-1.5007,2.3127-2.3487,3.7648-0.3552
			c-0.2152,0.1836-0.4288,0.369-0.6417,0.5555c0.1714-0.2251,0.3773-0.4208,0.5511-0.6439
			c1.4828,0.0789,1.4362,1.3827,2.0303,1.9704c-1.2372,2.4371-4.0272-0.2563-4.9979,2.0862
			C1196.472,34.4112,1196.4552,34.8072,1195.953,35.1822z"/>
		<path class="st41" d="M531.8722,464.0793c-2.6292-2.3729-2.6246-2.8293,0.0513-5.1438c0.1746,0.0543,0.3491,0.1086,0.5237,0.1601
			c0.6926,0.324,1.3878,0.3421,2.0859,0.0139c0.1735-0.0538,0.3474-0.1052,0.5212-0.1566c1.3524,0.3008,1.6769,1.2844,1.6843,2.483
			c-1.3031,1.4337-3.1865-0.0194-4.5577,0.9809c-0.0332,0.4709-0.0673,0.9543-0.1014,1.4377L531.8722,464.0793z"/>
		<path class="st42" d="M519.0114,460.0054c-0.4913-1.8019,0.4463-3.1783,1.3585-4.5623c1.9812,1.8409,2.0947,2.6628,1.2038,9.6927
			c-1.2913-2.0762-0.2961-4.0381-0.9007-5.7165c-0.499,0.1691-1.0894,0.3693-1.6799,0.5695
			C518.993,459.9888,519.0114,460.0054,519.0114,460.0054z"/>
		<path class="st43" d="M1245.5796,39.8624c-1.223,0-2.1603,0-3.0164,0c-0.9073-1.1175-0.5667-2.208-0.3848-3.2941
			c0.9436-0.9733,2.0905-0.4598,3.2274-0.4795C1246.3547,37.4025,1246.1273,38.6772,1245.5796,39.8624z"/>
		<path class="st43" d="M1236.2363,36.1166c1.229,0,2.1631,0,3.1622,0c0.943,1.0811,0.6848,2.2726,0.3519,3.4274
			c-1.1462,0.7132-2.202,0.5738-3.2998,0.1731C1235.6492,38.7363,1236.0065,37.6421,1236.2363,36.1166z"/>
		<path class="st43" d="M1230.3918,39.8878c-0.5043-1.4297-0.6464-2.4881-0.0298-3.4924c1.072-0.7513,2.1306-0.1803,3.0104-0.3606
			c0.9407,1.28,0.6652,2.3536,0.4165,3.4427C1232.8191,40.3815,1231.6906,39.9167,1230.3918,39.8878z"/>
		<path class="st43" d="M1242.2363,30.1166c1.229,0,2.1631,0,3.1622,0c0.943,1.0811,0.6848,2.2726,0.3519,3.4273
			c-1.1462,0.7132-2.202,0.5738-3.2998,0.1731C1241.6492,32.7363,1242.0065,31.6421,1242.2363,30.1166z"/>
		<path class="st44" d="M601.0042,459.9923c-1.1583-1.8287-2.1185-0.4793-2.4675,0.4315c-0.501,1.3075-0.4742,2.8173-0.7147,4.5419
			c-1.0771-3.2237-1.1226-4.387-0.4637-9.4503c1.0781,0.2863,0.5833,1.2759,0.9232,2.0227
			c0.8413,1.2764,3.0102-0.5073,3.7059,1.3932c0.2493,0.2339,0.3607,0.4898,0.3343,0.7676c-0.0274,0.2888-0.075,0.4333-0.1422,0.433
			C601.7513,460.3962,601.3593,460.3497,601.0042,459.9923z"/>
		<path class="st44" d="M619.0042,459.9923c-1.156-1.8284-2.1165-0.4822-2.4662,0.4292c-0.5015,1.307-0.4758,2.8164-0.7156,4.5279
			c-1.0812-3.267-1.1211-4.2773-0.4615-9.4369c1.0703,0.2924,0.5833,1.2791,0.9203,2.0244c0.845,1.2755,3.0106-0.5052,3.7061,1.3945
			c0.2493,0.2339,0.3607,0.4898,0.3343,0.7676c-0.0274,0.2888-0.075,0.4333-0.1422,0.433
			C619.7513,460.3962,619.3593,460.3497,619.0042,459.9923z"/>
		<path class="st45" d="M658.1628,459.125c-0.5566-0.0628-1.1132-0.1255-1.6698-0.1883c3.0466-1.3039,3.0466-1.3039,5.4263,2.1494
			c-1.3643,3.705-1.3643,3.705-4.9074,3.7735c0.047-0.4373,0.094-0.8745,0.141-1.3118
			C658.7852,462.3694,658.6297,460.7827,658.1628,459.125z"/>
		<path class="st43" d="M1239.8834,30.2364c0,1.2286,0,2.1625,0,3.1621c-1.0812,0.943-2.2727,0.685-3.4274,0.352
			c-0.7135-1.1463-0.5736-2.2022-0.1731-3.3C1237.2638,29.6492,1238.3579,30.0065,1239.8834,30.2364z"/>
		<path class="st43" d="M1233.8834,30.2364c0,1.229,0,2.1631,0,3.1621c-1.0812,0.943-2.2727,0.685-3.4274,0.352
			c-0.7135-1.1463-0.5736-2.2022-0.1731-3.3C1231.2638,29.6492,1232.3579,30.0065,1233.8834,30.2364z"/>
		<path class="st43" d="M1242.4834,27.9795c-0.6665-1.4215-0.6361-2.4739-0.1914-3.5502c1.0293-0.7294,2.0999-0.4772,3.1898-0.2113
			c0.8862,0.9748,0.4541,2.0909,0.3931,3.1482C1244.7512,28.6025,1243.5221,27.6849,1242.4834,27.9795z"/>
		<path class="st43" d="M1236.1166,27.7636c0-1.229,0-2.163,0-3.1154c1.0574-1.2754,2.3073-0.3171,3.2896-0.6206
			c0.851,1.3681,0.7115,2.424,0.3109,3.5218C1238.7362,28.3508,1237.6421,27.9935,1236.1166,27.7636z"/>
		<path class="st43" d="M1230.1377,27.4734c0-1.1168,0-2.054,0-2.9102c1.1173-0.9072,2.2078-0.5667,3.2938-0.3848
			c0.9735,0.9435,0.46,2.0904,0.4805,3.2719C1232.5989,28.2523,1231.3209,28.2992,1230.1377,27.4734z"/>
		<path class="st46" d="M1189.0571,30.4644c0.0094-0.4513,0.0187-0.9025,0.0278-1.3538c1.3037-0.2098,2.5751-0.1965,3.9951,0.6291
			c-0.531,2.7041,1.1615,5.6891-1.0751,8.2888c-0.7542-0.2261-0.8821-0.474-0.3486-1.2165
			c0.7559-1.0522,0.2172-1.7022-0.9918-1.8563C1190.2212,33.4255,1190.9612,31.4718,1189.0571,30.4644z"/>
		<path class="st47" d="M538.5508,455.5166c0.523,2.0366,2.102,2.9037,0.8931,4.6475c-1.1455,1.6524,0.1004,3.1125,1.2593,4.3638
			c-0.7483,0.6428-1.476,0.6464-2.5323-0.1575C538.3038,461.8299,537.0139,459.0655,538.5508,455.5166z"/>
		<path class="st48" d="M515.0445,459.99c-0.238-0.3754-0.7568-0.9169-0.8504-0.188c-0.2043,1.5905-0.0632,3.2255-0.2786,4.8301
			c-1.1901-2.926-1.2279-3.8116-0.59-9.3251c2.1237,0.9672,2.3472,2.8381,2.6121,4.6844
			C515.6391,460.457,515.3414,460.4808,515.0445,459.99z"/>
		<path class="st49" d="M568.9024,461.2154c-1.453-0.3806-2.9123-0.519-4.3364-0.1586c-1.2003,1.0291,0.0595,2.6998-1.2984,3.8734
			c-0.7781-3.1767-0.2457-6.2109-0.4031-9.8061c1.9058,1.5161,0.3625,3.5119,2.1351,4.809c0.6815,0,1.8148,0,2.9482,0
			C569.0067,459.8091,569.446,460.1464,568.9024,461.2154z"/>
		<path class="st50" d="M691.5107,455.2832c-1.7318,3.0008-0.9841,6.4691-2.0242,9.5353
			C689.8361,461.5264,686.2281,457.5122,691.5107,455.2832z"/>
		<path class="st51" d="M700.0166,458.4045c1.1363-0.4807,2.0616-0.7241,2.9417,0.0455c-1.8032,2.3942-1.8032,2.3942-2.4169,6.5616
			C697.8546,462.7757,699.8703,460.5063,700.0166,458.4045z"/>
		<path class="st52" d="M708.69,465.526c-1.366-2.5459-0.2239-4.4924-1.2018-6.1248c-0.1686-0.2814-0.3301-0.5669-0.4944-0.8509
			c1.4319-2.5206,1.4319-2.5206,4.034-3.4492C708.5794,458.2186,709.3998,461.6463,708.69,465.526z"/>
		<path class="st53" d="M559.0443,459.9895c-1.1166-1.7591-1.919-0.5036-2.531,0.3788c-0.8603,1.2403-0.1017,2.8597-0.6191,4.5335
			c-0.9689-2.6056-0.9689-2.6056-0.5951-6.659c1.6028,0.0922,3.296-1.0827,4.8049,0.6545
			C560.462,459.9514,559.9794,460.1901,559.0443,459.9895z"/>
		<path class="st54" d="M748.657,459.1167c-1.5817,0.0626-2.3503,0.9347-2.5351,2.4623c-0.1332,1.0999,0.4572,2.3402-0.7371,3.4045
			c-0.8102-2.1544-0.3287-4.255-0.3823-6.6342c1.8461-0.1441,3.5488-1.0694,5.1033,0.5829
			C749.6809,459.4499,749.198,459.5114,748.657,459.1167z"/>
		<path class="st55" d="M812.0673,458.9357c-0.869,0.4703-1.7381,0.9407-2.4205,1.31c-1.0209,1.4962,0.1148,3.1731-0.8476,4.3757
			c-0.3116,0.2576-0.6953,0.1555-0.7085-0.2564c-0.0629-1.9522-0.0282-3.9077-0.0282-6.0686
			c1.4786-0.0484,2.918-1.2931,3.9078,0.7282L812.0673,458.9357z"/>
		<path class="st56" d="M1166.1184,26.9502c0.1514-0.9041,0.7306-0.9262,1.6788-0.6218c0.3193,3.0172,0.391,6.1223-0.042,9.2309
			c-0.0214,0.153-0.536,0.2373-0.8209,0.3535C1165.7993,33.0039,1167.218,29.8624,1166.1184,26.9502z"/>
		<path class="st57" d="M763.1643,455.89c0.1819-0.9519,0.7933-0.7988,1.8327-0.4264c0,2.7928,0.0214,5.7303-0.0189,8.6668
			c-0.0077,0.5582-0.5251,0.7318-1.0455,0.7402C762.828,461.9496,764.1608,458.8202,763.1643,455.89z"/>
		<path class="st58" d="M515.0445,459.99c0.2977,0.0103,0.5954,0.0107,0.8931,0.0015c0.4511,0.6282,0.9022,1.2563,1.3331,1.8563
			c1.0289-0.332,0.4123-1.9603,1.7407-1.8423l-0.0183-0.0166c0.4453,1.9172-0.5522,3.4087-1.4867,5.0367
			C515.7183,463.7752,515.5114,461.8167,515.0445,459.99z"/>
		<path class="st59" d="M568.9024,461.2154c0.1123-0.7479-0.2566-1.1376-0.9547-1.2823c1.2795-1.2249,0.5769-3.1125,1.6444-5.0079
			c0.6625,3.6549,0.4814,6.775,0.187,10.1325C568.3372,463.807,569.0963,462.4236,568.9024,461.2154z"/>
		<path class="st60" d="M1130.8384,30.1118c-1.5646-0.1035-2.4594,0.6818-2.7338,2.1648c-0.2023,1.0943,0.2782,2.2734-0.3768,3.3496
			c-0.7949-2.395-0.7949-2.395-0.4138-6.2798c1.2705,0.1265,2.6388-1.2768,3.8251,0.4446L1130.8384,30.1118z"/>
		<path class="st61" d="M559.0443,459.9895c0.699-0.0286,0.9531-0.4888,1.0597-1.0922c1.9261,2.0034,0.6633,3.9897,0.2404,6.013
			C558.4725,463.5118,559.2482,461.6476,559.0443,459.9895z"/>
		<path class="st62" d="M1174.2958,29.8788c-0.506,0.0941-1.0118,0.1881-1.5178,0.2822c-2.9019,0.9574-1.2256,3.7433-2.2324,6.047
			c-1.1641-2.4171-0.488-4.4673-0.7209-6.5955C1171.4204,29.0511,1172.8894,28.1612,1174.2958,29.8788z"/>
		<path class="st63" d="M681.1165,464.926c0.0175-2.2747,0.035-4.5494,0.0526-6.8241c0.799,0,1.598,0,3.4972,0
			C681.0122,459.7857,683.11,463.0963,681.1165,464.926z"/>
		<path class="st64" d="M1148.7928,27.2552c0,2.8552,0,5.7104,0,8.5656C1147.6127,32.9801,1148.1932,30.1175,1148.7928,27.2552z"/>
		<path class="st65" d="M751.0099,459.0157c0.5829-1.7413,1.5936-1.1211,2.8776-0.32c0.3801,1.9102,0.3634,3.9756-0.0558,6.5373
			c-1.5823-1.9412-0.3422-3.8857-1.1202-5.4507c-0.3591-0.7355-1.1498-0.5301-1.7245-0.7922L751.0099,459.0157z"/>
		<path class="st66" d="M1166.1184,26.9502c1.5471,0.6399,0.7905,1.9869,0.8409,3.0149c0.0964,1.9775-0.0055,3.9646-0.025,5.9478
			c-0.7812-0.1153-0.9628-0.6405-0.9486-1.3357C1166.0377,32.035,1166.0753,29.4925,1166.1184,26.9502z"/>
		<path class="st67" d="M763.1643,455.89c1.8568,2.8566,0.374,5.9989,0.7683,8.9806c-0.8157-0.0854-0.9601-0.645-0.944-1.326
			C763.0488,460.9931,763.106,458.4416,763.1643,455.89z"/>
		<path class="st68" d="M851.0513,458.2209c1.3262,2.5085,1.3225,4.2604-0.0143,6.6596
			C850.2129,462.6589,850.1833,460.439,851.0513,458.2209z"/>
		<path class="st69" d="M1195.9531,35.1822c0.017-0.3959,0.0341-0.7918,0.051-1.1878c1.3949,1.7156,2.8967,0.0198,4.4434,0.0073
			C1198.7109,36.2026,1198.7109,36.2026,1195.9531,35.1822z"/>
		<path class="st70" d="M1146.0486,29.6607c0,1.7952,0.0221,3.5909-0.024,5.3849c-0.0067,0.2681-0.3336,0.528-0.6715,1.0261
			C1144.7593,33.6397,1144.7528,31.449,1146.0486,29.6607z"/>
		<path class="st71" d="M651.9595,458.1714c-0.0155,2.2042-0.0311,4.4084-0.0466,6.6126
			C650.6149,462.3693,650.6264,460.7374,651.9595,458.1714z"/>
		<path class="st72" d="M742.9452,458.2313c1.4873,2.0544,1.494,4.4812,0.0185,6.6437
			C742.2419,462.6624,742.2664,460.4478,742.9452,458.2313z"/>
		<path class="st73" d="M851.0513,458.2209c-0.0048,2.2199-0.0095,4.4397-0.0143,6.6596
			C849.569,462.6667,849.574,460.3492,851.0513,458.2209z"/>
		<path class="st74" d="M742.9452,458.2313c0.0062,2.2146,0.0123,4.4291,0.0185,6.6437
			C741.6094,462.4941,741.6046,460.7643,742.9452,458.2313z"/>
		<path class="st68" d="M836.0507,458.2208c1.3438,2.5337,1.3403,4.2299-0.0136,6.6598
			C835.2124,462.6589,835.1841,460.439,836.0507,458.2208z"/>
		<path class="st73" d="M836.0507,458.2208c-0.0046,2.2199-0.0091,4.4398-0.0137,6.6598
			C834.5693,462.6663,834.574,460.3399,836.0507,458.2208z"/>
		<path class="st75" d="M748.657,459.1167c0.4829-0.0615,0.9658-0.123,1.4487-0.1846c0.3134-0.1014,0.6147-0.0736,0.9042,0.0835
			l-0.0229-0.0256c-1.264,1.7408-0.4829,4.0112-1.4495,6.175C748.4456,463.0189,749.4033,460.9443,748.657,459.1167z"/>
		<path class="st76" d="M1132.9584,29.9562c-1.2886,1.7496-0.5275,4.0142-1.4558,6.31c-0.8929-2.2821-0.2603-4.2774-0.6642-6.1544
			c0,0,0.3007-0.3208,0.3007-0.3208c0.6294,0.0813,1.2589,0.1626,1.8883,0.2439
			C1133.0273,30.0349,1132.9584,29.9562,1132.9584,29.9562z"/>
		<path class="st77" d="M1135.1522,29.8966c1.8401,1.8191,0.6504,3.8674,0.5009,5.8419c-1.0791-1.7673-0.4368-3.7383-0.7456-5.5925
			L1135.1522,29.8966z"/>
		<path class="st78" d="M587.7353,463.2479c0.5614,1.3974,0.7803,2.6439-0.9004,3.5897
			C587.1709,465.6789,585.183,464.1524,587.7353,463.2479z"/>
		<path class="st79" d="M619.9214,460.0321c0.022-0.3669,0.0439-0.7337,0.0659-1.1005c1.4669,2.4089,1.4767,3.9485,0.038,5.9298
			C619.1914,463.2688,619.3393,461.6551,619.9214,460.0321z"/>
		<path class="st80" d="M774.5081,462.9085c0.9122,1.6943,0.7825,2.8606-0.1779,4.0888
			C773.4418,465.2192,773.4435,465.0855,774.5081,462.9085z"/>
		<path class="st79" d="M601.9214,460.0321c0.022-0.3669,0.0439-0.7337,0.0659-1.1005c1.4656,2.4074,1.4754,3.9443,0.038,5.9299
			C601.1915,463.2688,601.3393,461.6551,601.9214,460.0321z"/>
		<path class="st81" d="M1203.0055,30.0107c1.5963-2.1207,2.7281-0.8003,3.9852,0.4843c-1.6194,1.3124-2.5785-1.272-4.0026-0.5004
			L1203.0055,30.0107z"/>
		<path class="st82" d="M619.9214,460.0321c0.0347,1.6098,0.0693,3.2195,0.1039,4.8293c-0.7562-0.0295-1.0306-0.4725-1.0263-1.1741
			c0.0074-1.2316,0.004-2.4633,0.0052-3.6949C619.3083,460.0422,619.6141,460.0554,619.9214,460.0321z"/>
		<path class="st82" d="M601.9214,460.0321c0.0346,1.6098,0.0692,3.2196,0.1039,4.8293c-0.7562-0.0296-1.0306-0.4725-1.0264-1.1742
			c0.0075-1.2316,0.0042-2.4633,0.0053-3.6949C601.3083,460.0422,601.6141,460.0554,601.9214,460.0321z"/>
		<path class="st83" d="M743.8638,455.9471c0.1084,0.632-0.3376,0.8763-0.7997,0.9991c-0.5865,0.1558-0.9039-0.276-1.0096-0.7569
			c-0.1259-0.5725,0.2722-0.9139,0.7778-1.0332C743.4477,455.011,743.6675,455.4909,743.8638,455.9471z"/>
		<path class="st84" d="M841.5338,461.3269c-1.1107,0.9349-2.2679,1.0394-3.4543,0.2494
			C839.1607,460.2846,840.3636,461.2235,841.5338,461.3269z"/>
		<path class="st85" d="M729.4783,463.2451c1.1348,1.2211,0.6428,2.3506,0.0912,3.6161
			C728.675,465.5735,728.5854,464.4351,729.4783,463.2451z"/>
		<path class="st86" d="M531.9235,458.9355c1.0521-1.5079,2.0961-1.5764,3.1309,0.0174l-0.0368,0.0215
			c-1.0081,0.8379-2.0182,0.8367-3.0306,0.0079L531.9235,458.9355z"/>
		<path class="st87" d="M1139.0206,30.022c0.9662-1.7543,2.0009-1.5847,3.082-0.1098c0,0-0.1763,0.1895-0.1763,0.1895
			c-0.9841-0.0414-1.9683-0.0829-2.9524-0.1243C1138.974,29.9774,1139.0206,30.022,1139.0206,30.022z"/>
		<path class="st88" d="M1203.0378,31.9768c1.1196,0.0175,2.4006-0.5636,3.1442,0.848l-0.3407,0.313
			c-0.9742-0.3173-2.4371,0.6248-2.8612-1.1103L1203.0378,31.9768z"/>
		<path class="st89" d="M535.029,464.0286c-1.0247,1.7325-2.0814,1.4776-3.1568,0.0507l0.2075-0.2248
			c0.9654,0.0401,1.9308,0.0802,2.8962,0.1203L535.029,464.0286z"/>
		<path class="st90" d="M1202.9961,35.0041c0.9985-0.0046,1.9971-0.0093,2.9956-0.0139c0,0,0.0204,0.018,0.0204,0.018
			c-1.0928,1.3597-1.9664,1.356-3.0077-0.0126L1202.9961,35.0041z"/>
		<path class="st91" d="M854.4865,463.3107c0.439,0.5682,0.7139,0.9482,0.2497,1.3733c-0.0774,0.0709-0.2656,0.1259-0.3367,0.0819
			C853.8235,464.4087,854.1217,463.9893,854.4865,463.3107z"/>
		<path class="st88" d="M1205.9917,34.9902c-0.0502-0.6174-0.1003-1.2349-0.1504-1.8523c0,0,0.3407-0.313,0.3407-0.313
			c1.3368,0.8362,1.4969,1.5809-0.1699,2.1833C1206.0121,35.0082,1205.9917,34.9902,1205.9917,34.9902z"/>
		<path class="st77" d="M1180.913,35.1447c-1.3525-0.7712-1.48-1.4954,0.0825-2.1549l-0.0309-0.014
			c0.6183,0.6588,0.6205,1.3315,0.0458,2.0174L1180.913,35.1447z"/>
		<path class="st90" d="M1202.9882,29.9946c0.0165,0.6607,0.0331,1.3215,0.0497,1.9822l-0.0577,0.0507
			c-0.8018-0.0576-1.1011-0.5556-0.9846-1.2724c0.0818-0.5029,0.4675-0.7744,1.01-0.7444L1202.9882,29.9946z"/>
		<path class="st92" d="M1134.9075,30.146c-0.6497-0.0632-1.2994-0.1265-1.9491-0.1897c0,0,0.069,0.0787,0.069,0.0787
			c0.7269-1.3951,1.0765-1.4179,2.1249-0.1383L1134.9075,30.146z"/>
		<path class="st90" d="M1203.0044,34.9955c-0.4548,0.0616-0.8136-0.0581-0.891-0.5606c-0.0134-0.0876,0.1987-0.307,0.2883-0.2973
			c0.507,0.0553,0.6284,0.4168,0.5944,0.8665L1203.0044,34.9955z"/>
		<path class="st93" d="M1145.3591,27.1886c0.1185,0,0.2666-0.0462,0.3373,0.0081c0.2914,0.224,0.2257,0.4818-0.1914,0.6734
			c-0.0446,0.0205-0.2544-0.2075-0.3032-0.3493C1145.1722,27.4351,1145.3053,27.2934,1145.3591,27.1886z"/>
		<path class="st94" d="M677.98,464.0892c0.0837-0.2762,0.0978-0.7317,0.2638-0.7963c0.5869-0.2282,0.7197,0.233,0.7858,0.6949
			C678.6798,464.0217,678.3299,464.0555,677.98,464.0892z"/>
		<path class="st89" d="M534.9759,463.9748c-0.0139-0.4658,0.1357-0.8267,0.6565-0.8593c0.0991-0.0062,0.3133,0.2113,0.3007,0.3011
			c-0.0719,0.5107-0.4371,0.6505-0.9041,0.612L534.9759,463.9748z"/>
		<path class="st95" d="M528.0504,464.1858c-0.0093-0.3154-0.0104-0.6308-0.0034-0.9463c0.3374-0.2437,0.6698-0.235,0.7526,0.0888
			C528.9474,463.9059,528.4805,464.0539,528.0504,464.1858z"/>
		<path class="st55" d="M813.0152,459.0877c-0.0386,0.5428-0.3081,0.8683-0.8672,0.9209c-0.0269-0.3576-0.0538-0.7153-0.0807-1.0729
			l-0.0969,0.0889C812.3186,459.0456,812.6669,459.0667,813.0152,459.0877z"/>
		<path class="st90" d="M1138.974,29.9774c0.0898,0.4589-0.016,0.8253-0.5225,0.9255c-0.0845,0.0167-0.3132-0.198-0.3042-0.2888
			c0.0514-0.5183,0.4203-0.6311,0.8733-0.5921L1138.974,29.9774z"/>
		<path class="st96" d="M1243.5631,1053.0248c-1.2673-1.5574-0.2129-3.1949-0.9585-4.6154c-0.6112-0.778-1.3862-0.316-2.0201-0.2555
			c-1.2878,1.4727,0.2308,3.4532-1.4558,4.9634c-2.0619-2.0869-0.8336-4.4569-1.0636-6.9091c4.7452,0,9.1266,0,13.7546,0
			c0,2.2756,0,4.3417,0,6.9745c-1.8229-1.9165,0.2421-4.7313-2.2688-5.7827c-2.7321,0.9496-0.6157,3.8617-2.0413,5.4635
			c-1.6228-1.5471,0.7104-4.514-2.0701-5.525C1243.0768,1048.452,1244.6567,1050.9391,1243.5631,1053.0248z"/>
		<path class="st97" d="M69.0317,1046.0337c0.4925,0.0553,0.985,0.1106,1.6221,0.1821c0.6624,2.0798,0.0788,4.1819,0.375,6.2003
			c-1.7122,0.8508-3.1287,0.6407-4.5172,0.3778c-1.1595-1.3392-0.1054-2.993-0.8275-4.3494
			c-0.6436-0.7516-1.4096-0.4835-2.2065-0.194c-1.1904,1.3307,0.3053,3.3066-1.2845,4.8461
			c-2.2023-2.0251-0.8403-4.4247-1.111-6.559c3.1509-0.5385,4.3321-1.0481,5.5344-2.3146c0.7189,0.3779,0.3607,1.6772,1.4558,1.7295
			c0.5719,0.7139,0.3079,1.4991,0.1674,2.316C68.5831,1047.5156,68.3705,1046.6219,69.0317,1046.0337z"/>
		<path class="st98" d="M89.9641,1053.0305c-0.5822-1.5586-2.88-2.475-1.6974-4.7004c1.1946-2.2483,3.1397-2.6356,5.4035-2.2899
			c0.2976,0.0454,0.574,0.2295,1.2725,0.5221c0,1.5687,0.2146,3.3663-0.0603,5.0858c-0.2753,1.7216-0.745,3.6782-2.7445,4.2555
			c-1.9545,0.5643-2.9415-0.9528-3.8687-2.3369c0.4454-0.6272,1.1131-0.5736,1.7531-0.6021L89.9641,1053.0305z"/>
		<path class="st99" d="M127.1196,1052.8842c0-3.2607,0-6.1993,0-9.355c2.1826-0.8311,4.7463-1.2424,5.9417,1.1617
			c0.9463,1.9032,0.8654,4.4532,0.7601,6.6935C133.7555,1052.7876,132.1613,1053.0571,127.1196,1052.8842z"/>
		<path class="st100" d="M1296.0439,1047.7374c2.2749,2.3356,2.4904,3.115,1.3364,4.407c-0.7557,0.8462-1.71,0.8035-2.7112,0.92
			c-2.1675,0.2522-3.4344-0.8451-4.4976-2.7719c1.8779-0.5389,2.9458,1.0754,4.3983,1.465c0.702-0.3904,1.4186-0.7888,2.1541-1.1979
			c-1.173-2.2576-4.0389-1.271-5.538-3.124c-0.6012-1.8047-0.4147-3.4983,1.7097-4.3456c1.7552-0.7001,3.7914,0.3091,4.9442,2.3943
			c0.3403,0.6158-0.0022,1.2712-0.7922,1.494c-0.4143-0.2432-0.8752-0.5792-1.2764-0.1035
			C1295.6011,1047.0767,1295.8212,1047.4733,1296.0439,1047.7374z"/>
		<path class="st101" d="M1324.9631,1053.0331c-0.0405-0.1609-0.0632-0.3289-0.1241-0.4816
			c-2.1105-5.2802-1.0482-6.717,4.9137-6.2415c0.5149,2.021,0.244,4.1536,0.2029,6.2567c-0.0337,1.7277-1.2946,2.6906-2.6536,3.2949
			c-1.1642,0.5177-2.2787-0.0552-3.0107-1.1062c-0.6362-0.9135-0.2681-1.5015,0.7316-1.7898L1324.9631,1053.0331z"/>
		<path class="st102" d="M1152.3966,1049.4474c-1.1118,0.8401,0.3313,2.6602-1.1841,3.4028
			c-0.5907,0.1533-1.1078-0.2577-1.1173-0.6486c-0.0715-2.9169-0.0388-5.8364-0.0388-8.6987
			c6.6626-0.8364,8.4071,0.594,6.6241,5.1069C1155.4124,1049.6016,1153.7721,1048.6512,1152.3966,1049.4474z"/>
		<path class="st103" d="M208.5738,1053.1272c2.037-3.6393,2.3749-7.1027,4.7515-10.1409c2.9353,2.5869,2.7768,6.517,4.874,9.153
			c-0.6879,0.6661-1.3307,1.2079-1.8054,0.4282c-0.7762-1.2747-1.3176-2.6519-3.2066-2.4957
			c-1.6592,0.1372-1.8666,1.6202-2.6346,2.6034C210.4059,1052.8632,209.9688,1052.8243,208.5738,1053.1272z"/>
		<path class="st104" d="M39.9698,1051.9652c-0.047,0.5624-0.3959,0.8463-0.9071,0.9806c-3.1146-3.5135-3.1146-3.5135-7.981,0.1262
			c0.4343-3.9128,2.5474-6.7686,3.5312-10.583c3.3944,2.84,3.1372,6.9221,5.4208,9.5448L39.9698,1051.9652z"/>
		<path class="st105" d="M1310.0259,1051.9893c-0.3921,1.4175-1.4663,0.9839-2.7294,0.8685
			c-0.0546-2.8474-1.5475-5.6864-0.0662-8.6204c0.7158,0.0563,0.828,0.4385,0.9482,0.9183c0.0649,0.2593,0.433,0.4424,0.7142,0.7065
			c1.3621,0.3154,0.9619-1.5255,2.2926-1.8009c1.3245-0.2352,0.2352,1.9144,1.7537,1.7754
			c-1.0082,2.4874-1.5192,4.7025-0.0854,6.7231c-1.443,1.0447-1.9365-0.5244-2.8687-0.5314c-0.29-0.3395-0.4509-0.751-0.6388-1.1476
			C1309.4846,1051.3046,1309.699,1051.6815,1310.0259,1051.9893z"/>
		<path class="st106" d="M1305.2767,1052.2717c-2.1378,1.0303-4.0488,1.4384-5.5576-0.2577
			c-1.8334-2.0612-0.3364-3.9321,0.6389-5.7007c3.84-0.1808,3.84-0.1808,5.3986,3.2053c-1.2705,1.3567-3.1804-0.2664-4.4835,0.9174
			C1301.7622,1053.2914,1304.2449,1049.7894,1305.2767,1052.2717z"/>
		<path class="st104" d="M40.0337,1052.0338c-0.0169-0.4929-0.0629-0.9869-0.0461-1.4788c0.138-4.0405,0.1415-4.0404,4.4235-4.8239
			c0.9098-0.5681,0.0468-1.9921,1.4008-2.575c0,3.1458,0,6.2047,0,9.4889c-2.0123,0.816-3.9627,0.5212-5.8421-0.6799
			L40.0337,1052.0338z"/>
		<path class="st107" d="M1171.9794,1047.0286c1.7404-1.0138,3.5369-1.5626,5.6288-0.6478
			c1.1437,1.8496-0.2944,4.2416,1.3434,6.4202c-2.616-0.189-5.3146,1.6271-6.9171-1.4778c0.2301-2.7051,2.7949-1.9301,4.1434-3.0874
			c-1.0663-1.9525-3.6207,1.5876-4.1404-1.2836L1171.9794,1047.0286z"/>
		<path class="st108" d="M219.1411,1043.0704c1.1475,0.7151,0.7617,1.679,1.1221,2.4188c0.7297,0.9596,1.8762,0.1193,3.6096,1.3004
			c0.7548,0.7821,2.0435,2.5015,0.7747,4.7677c-1.2322,2.2008-3.3397,1.4725-5.5065,1.3077
			C219.1411,1049.6954,219.1411,1046.65,219.1411,1043.0704z"/>
		<path class="st109" d="M238.3988,1045.7284c1.0669,2.3845,0.4109,4.5107,0.6243,6.5439
			c-5.8538,1.6626-6.9675,0.3778-5.3682-6.3047c2.8166,1.2461-0.0011,4.4569,2.2973,5.9551
			C238.3465,1050.6394,235.8195,1047.5161,238.3988,1045.7284z"/>
		<path class="st109" d="M141.3707,1052.6267c-6.5711,0.605-7.5693-0.7789-5.4366-6.7368c2.134,1.611,0.0008,4.3229,1.8405,6.0237
			c2.7039-1.162,0.0472-4.3993,2.4053-6.053C141.9073,1047.934,140.4172,1050.3055,141.3707,1052.6267z"/>
		<path class="st110" d="M1186.0845,1046.2408c2.2067,0.3436,1.6096,2.2836,2.2845,3.38c2.1768-0.1882,0.9017-3.0051,3.108-3.6715
			c0.2401,3.0646-1.1991,5.3962-2.3324,7.8434c-0.5852,1.2639-1.2075,2.1317-2.5632,2.0695
			c-1.1617-1.8654,0.7391-1.6276,1.1002-2.3804C1188.1436,1050.9202,1185.3402,1048.9607,1186.0845,1046.2408z"/>
		<path class="st111" d="M55.9567,1050.6287c1.1002,2.8765,2.6072-0.634,3.7842,0.7111c-0.8108,2.2869-2.6317,1.9038-4.2735,1.3831
			c-1.3867-0.4398-2.1389-3.1128-1.4318-4.84c0.65-1.5875,2.0125-2.191,3.6549-1.8572c1.9499,0.396,2.7343,1.6122,2.2116,3.5388
			C58.7538,1050.6464,57.1751,1049.423,55.9567,1050.6287z"/>
		<path class="st111" d="M1236.9908,1049.4053c-1.0532,1.4415-3.061-0.2903-3.9316,1.3635c0.9197,2.793,2.4368-0.6364,3.5966,0.4852
			c-0.5748,2.5088-2.5098,1.918-4.0818,1.5265c-1.4263-0.3552-2.1729-2.9133-1.5341-4.7661
			c0.4775-1.3855,1.4951-2.1073,3.0316-2.0315C1236.3695,1046.0963,1237.3315,1047.2421,1236.9908,1049.4053z"/>
		<path class="st111" d="M164.993,1049.4001c-1.0551,1.4476-3.0648-0.2863-3.9343,1.3702c0.9226,2.7894,2.439-0.6407,3.5995,0.4839
			c-0.5759,2.5061-2.5102,1.9181-4.0827,1.5272c-1.4269-0.3546-2.1746-2.9125-1.5361-4.7661
			c0.4774-1.3859,1.4949-2.1093,3.0317-2.0323C164.3657,1046.0979,165.335,1047.2383,164.993,1049.4001z"/>
		<path class="st112" d="M155.2639,1048.0035c-3.2519,0.2267-1.3378,3.5334-2.9156,5.0525
			c-0.7257-2.2374-0.3091-4.3323-0.3785-6.6237c1.7723-0.4973,3.6216-1.144,5.0608,0.2079c1.964,1.8447,0.6476,4.1061,0.9105,6.7372
			C154.7731,1051.9569,157.1587,1049.1633,155.2639,1048.0035z"/>
		<path class="st113" d="M86.7967,1053.1731c-1.6632-1.9749,0.2403-4.5225-2.2418-5.7786
			c-2.9614,0.7943-0.4551,4.1195-2.5042,5.7397c-1.9129-2.1339-0.6566-4.4882-1.0467-6.9159c2.1033,0,3.814,0,5.7927,0
			C86.7967,1048.4382,86.7967,1050.4847,86.7967,1053.1731z"/>
		<path class="st114" d="M1184.6436,1048.8059c-0.6642-0.4858-1.3199-0.9656-1.9756-1.4453
			c-1.8474,2.0267-1.8474,2.0267-0.2482,4.4482c0.7568-0.5232,1.5126-1.0457,2.275-1.5726c0.6019,0.8898,0.413,1.6266,0.0242,2.2955
			c-1.2812,0.9268-2.614,0.3118-3.8622,0.5145c-1.054-1.3617-2.2928-2.6265-1.6832-4.3877c0.299-0.8636,1.0892-1.6826,1.8644-2.2266
			c1.141-0.8005,2.4529-0.665,3.6163-0.0348C1185.2928,1047.2286,1185.1635,1047.9783,1184.6436,1048.8059z"/>
		<path class="st115" d="M1258.9044,1051.0209c-2.4032,2.6846-2.674,2.709-5.7363,0.4886c1.1389-1.7952,2.5876,1.7147,3.8179-0.3943
			c-0.5356-1.8928-3.8186-0.4281-3.8092-3.0558c2.2257-2.7711,2.359-2.7888,5.5258-0.6198
			c-0.9353,2.0875-2.6044-1.8324-3.6545,0.7052C1255.9197,1049.5221,1258.8981,1048.4724,1258.9044,1051.0209z"/>
		<path class="st116" d="M77.9451,1051.0382c-2.6174,2.6528-2.7602,2.6658-5.8005,0.5107c1.1189-1.842,2.5464,1.7109,3.7388-0.3896
			c-0.3245-2.0887-3.9302-0.202-3.7214-3.0519c-0.0588-1.1689,0.7367-1.9669,1.994-2.0791
			c1.0564-0.0942,2.4035-0.4611,2.8139,1.1567c-0.6951,1.688-1.8447,0.1075-2.7277-0.0564c0,0.7599-0.1152,1.2338,0.0179,1.3188
			C75.5278,1049.2577,77.6562,1048.8132,77.9451,1051.0382z"/>
		<path class="st116" d="M1335.9817,1047.2107c-1.0817,1.6501-1.8956-0.4182-2.7579,0.401c0,0.2627-0.1249,0.6648,0.0208,0.8335
			c0.7802,0.9038,2.3307,0.1078,3.0138,1.3214c0.16,0.2843,0.3821,0.5339,0.5745,0.8003c-1.8529,3.1375-2.5609,3.255-5.7087,0.9497
			c1.1406-1.7839,2.5627,1.7417,3.788-0.3895c-0.4833-1.9106-3.7512-0.4252-3.7699-3.0117
			C1333.0477,1045.4044,1333.1241,1045.3876,1335.9817,1047.2107z"/>
		<path class="st115" d="M171.9753,1051.9812c-2.049,1.0979-4.0916,2.1311-5.8231-0.4664c1.201-1.7625,2.6087,1.7993,3.8417-0.5022
			c-0.6782-1.7047-3.7464-0.3976-3.9112-2.8512c0.0063-1.0571,0.7698-1.8186,1.6892-2.0593
			c1.4485-0.3793,2.9233-0.1818,4.0684,1.0038C170.2144,1048.7772,173.7909,1050.3046,171.9753,1051.9812z"/>
		<path class="st115" d="M148.0361,1050.9471c-2.6067,2.7618-2.8599,2.7817-5.8703,0.5342
			c1.1317-1.7703,2.6088,1.8594,3.8113-0.4845c-0.6043-1.7135-3.8285-0.3458-3.7978-2.969c2.304-2.7421,2.4477-2.7581,5.5753-0.531
			c-1.1274,1.6667-2.2735-1.2483-3.3618-0.0851c-0.3322,0.6023-0.2512,1.0525,0.2615,1.3071
			c0.8541,0.4243,2.0306,0.0255,2.6669,1.0231C147.5774,1050.1438,147.8085,1050.5619,148.0361,1050.9471z"/>
		<path class="st117" d="M1225.9331,1052.4763c0-2.2877,0-4.5753,0-6.3202c-0.723-1.6962-2.6758-0.4708-2.9425-2.635
			c2.2484-0.9552,4.5688-0.1777,6.7596-0.5369c0.545,2.8785-2.0734,1.3988-2.864,2.6548c0,2.412,0,4.824,0,7.236
			C1226.5685,1052.7422,1226.2509,1052.6093,1225.9331,1052.4763z"/>
		<path class="st108" d="M232.0647,1049.4285c0.0354,2.4658-0.7896,3.4973-2.8889,3.6122c-2.1737,0.1191-3.183-0.8555-3.2971-3.1841
			c-0.1347-2.7483,0.8019-3.9194,3.1066-3.8844C231.1245,1046.0046,232.0302,1047.0211,232.0647,1049.4285z"/>
		<path class="st107" d="M1172.0375,1046.9521c-1.9231,1.5266-1.0892,4.7418-3.6836,5.9554
			c-2.0543-1.7806-2.2507-4.296-3.1172-7.0519c2.4491,0.6593,2.0554,2.8329,3.2625,3.9307c0.6815-1.2394,1.3496-2.4543,2.005-3.6464
			c0.7781-0.1287,1.2988,0.1027,1.4752,0.8885L1172.0375,1046.9521z"/>
		<path class="st118" d="M50.1021,1054.0627c-1.37-3.2092-2.2502-5.271-3.1087-7.282c0.7845-0.9438,1.6095-0.9241,1.8986,0.089
			c0.3238,1.1348,0.3946,2.299,1.6879,2.8491c0.6543-1.1622,0.2741-2.9977,2.3344-3.5836
			C53.1885,1048.9459,51.9489,1051.0396,50.1021,1054.0627z"/>
		<path class="st119" d="M172.9654,1046.9844c1.7681-1.1155,3.4958-1.8644,4.9013,0.4988c-0.85,1.3209-1.9522-0.4916-2.8427-0.0037
			c0.1033,2.0731,1.8693,1.0818,2.5405,1.7559c0.771,1.12,0.7199,2.1791-0.0239,3.5776c-1.4962,0.0651-3.1891,0.9354-4.6411-0.7714
			C174.683,1050.3788,171.3663,1048.6495,172.9654,1046.9844z"/>
		<path class="st120" d="M172.9654,1046.9844c-0.4958,3.0624,2.5993,2.6112,3.9212,3.6982c-0.6813,3.0535-3.125-0.6016-3.987,1.359
			c-0.3082-0.0193-0.6163-0.0394-0.9243-0.0604c0.4646-3.0217-2.6299-2.6633-4.0289-3.4945c0.9031-3.1783,3.17,1.2964,3.8938-1.381
			C172.2152,1047.0652,172.5903,1047.0248,172.9654,1046.9844z"/>
		<path class="st121" d="M1163.6907,1053.1375c-1.3705-1.901-0.2714-3.8344-0.9768-5.582c-0.847-0.561-1.2401,0.8737-1.9373,0.4663
			c-1.5472,1.3726,0.005,3.3475-1.381,4.9261c-0.8519-2.3047-0.4336-4.4231-0.4099-6.5304c1.7144-0.6824,3.1407-0.3799,4.889-0.1628
			C1164.2059,1048.4625,1164.3777,1050.6373,1163.6907,1053.1375z"/>
		<path class="st122" d="M1321.9363,1046.224c0,2.436,0,4.3798,0,6.4047c-1.0784-0.0552-0.8954-0.7656-0.9241-1.2723
			c-0.0469-0.827,0.1158-1.6909-0.0714-2.4768c-0.1387-0.5812-0.6934-1.0631-1.0819-1.6168
			c-2.9371,1.0438-1.1349,3.8341-2.3622,5.8868c-1.0568-2.3363-0.4144-4.4023-0.6022-6.4746
			C1318.4087,1045.5576,1319.9747,1045.9751,1321.9363,1046.224z"/>
		<path class="st123" d="M242.2204,1052.8397c-1.4275-2.6709-2.5986-5.462-0.7433-9.2289c0.3965,1.7288,1.6347,2.416,0.8184,4.0714
			C241.516,1049.2629,242.0354,1051.0468,242.2204,1052.8397z"/>
		<path class="st124" d="M69.0317,1046.0337c-0.2115,1.9167,0.3441,3.8846-0.2958,5.8127c-3.4686-1.682-0.5254-3.9392-0.6637-5.8938
			C68.3939,1045.9585,68.7137,1045.9855,69.0317,1046.0337z"/>
		<path class="st125" d="M1296.0439,1047.7374c-1.3014-0.1438-2.3334-0.7244-3.4584-1.8799
			c2.3064-1.5369,3.4944-0.6094,4.4622,1.1208C1296.541,1047.0039,1296.1409,1047.1702,1296.0439,1047.7374z"/>
		<path class="st126" d="M149.9282,1046.4946c0,2.0188,0,4.0377,0,6.5096C148.8193,1050.0535,148.8193,1050.0535,149.9282,1046.4946
			z"/>
		<path class="st127" d="M1314.4927,1046.0118c0.2252,0.5892,0.5024,0.9916,0.5143,1.4015
			c0.0502,1.7375,0.0214,3.4773,0.0214,6.3269C1313.7437,1049.9019,1313.7437,1049.9019,1314.4927,1046.0118z"/>
		<path class="st127" d="M79.1714,1052.709c0-2.1367,0-4.2736,0-6.4104C80.459,1048.349,79.8897,1050.4625,79.1714,1052.709z"/>
		<path class="st128" d="M70.8723,1043.8789c0.1192,0.6259-0.3178,0.89-0.7749,1.0194c-0.5874,0.1666-0.8882-0.285-1.0136-0.7554
			c-0.1564-0.5864,0.2644-0.8959,0.7526-1.0275C70.4529,1042.9492,70.6642,1043.4384,70.8723,1043.8789z"/>
		<path class="st129" d="M79.4834,1043.1963c0.4165,0.469,0.8617,0.9219,0.1719,1.4933c-0.0672,0.0558-0.2538,0.0607-0.3219,0.0079
			C78.6041,1044.132,79.0953,1043.676,79.4834,1043.1963z"/>
		<path class="st130" d="M149.5047,1043.1318c0.3958,0.5516,0.9407,1.0134,0.1771,1.5817
			c-0.0718,0.0535-0.2584,0.0503-0.3278-0.0057C148.6176,1044.1144,149.1984,1043.6743,149.5047,1043.1318z"/>
		<path class="st130" d="M1163.5256,1044.8683c-0.479-0.4563-0.8254-0.9226-0.1448-1.4775
			c0.0673-0.0548,0.2557-0.0652,0.3118-0.0135C1164.2999,1043.9381,1164.0771,1044.4208,1163.5256,1044.8683z"/>
		<path class="st129" d="M1314.5045,1043.184c0.3809,0.4963,0.8541,0.9717,0.1244,1.5312
			c-0.0682,0.0522-0.2562,0.0425-0.3251-0.0149C1313.5845,1044.1027,1314.1112,1043.6592,1314.5045,1043.184z"/>
		<path class="st131" d="M790.9718,415.0546c0.5814-2.853-1.0199-6.1353,1.2467-8.8698c1.8379,0.5022,1.6479,1.9633,1.8945,3.4544
			c1.8102-0.4942,3.6315-0.9961,5.3024-0.4739c1.3506,0.5257,1.305,1.9255,2.1085,2.6245c1.4224-0.4031,0.9842-2.533,2.5757-2.7232
			c0.3001,0.217,0.8069,0.4728,0.7773,0.5784c-0.6102,2.1802-1.1622,4.3892-1.9731,6.4973
			c-0.8564,2.2261-2.2296,2.7202-4.3689,1.8897c-0.0759-0.1479-0.2432-0.3183-0.2131-0.4399
			c0.213-0.8615,1.6065-0.4358,1.5865-0.9807c0.3612-2.2692-1.1321-3.5302-1.2244-5.201c-0.0219-0.3967-0.5846-0.7635-0.8916-1.1358
			c-1.0502-0.0221-1.21,0.9314-1.8753,1.4467c0.6333,1.3419,1.2381,2.6235,1.8392,3.8972
			c-1.7004,0.9615-2.5055,0.0591-3.1269-1.2827C793.5909,415.2548,792.841,417.4191,790.9718,415.0546z"/>
		<path class="st132" d="M756.2478,411.4803c0.983-2.6451,3.4302-2.8639,6.514-2.2122c0.7137,2.1008,0.314,4.4019,0.2667,6.6357
			c-0.0466,2.204-0.9969,3.1566-2.9548,3.0224c-1.7752-0.1216-3.7858-0.2219-2.5554-3.1527
			C758.0226,414.5726,755.7494,413.9693,756.2478,411.4803z"/>
		<path class="st133" d="M713.2343,416.333c-2.118-1.6923-0.3141-4.0151-2.0653-5.3504c-2.4212,0.9911,0.1105,3.942-2.1954,4.9954
			c-2.3172-0.9017,0.2172-3.8307-1.9815-4.9224c-2.2508,0.9117,0.2205,3.8713-2.3936,5.0552
			c-1.1777-2.093-0.3575-4.3419-0.6472-6.5334c2.6483-1.4883,5.4104,0.4639,7.9999-0.5047
			c0.7695-0.2878,1.6779,0.5658,1.8173,1.3603C714.0903,412.2675,714.4973,414.1847,713.2343,416.333z"/>
		<path class="st134" d="M736.9944,415.9519c-2.4482,0.6196-2.5908-1.9887-4.3775-3.3347c0.3199,2.677-0.7084,3.7089-2.9833,3.4295
			c-1.5176-0.1863-2.402-0.9044-2.6594-2.4319c-0.3733-2.2148,0.4015-4.196,1.9819-4.5543
			c2.2889-0.5189,3.7748,0.5051,4.4685,2.7313c0.6871-0.5102,0.5017-1.698,1.569-1.7966c1.1444,0.8672,1.1244,2.3173,1.7411,3.4511
			C737.0577,414.2566,737.5422,415.0533,736.9944,415.9519z"/>
		<path class="st135" d="M719.0193,406.0732c2.6946,0.0441,4.7843-0.4072,6.9402,0.4104c-0.3707,3.0439-4.0068,0.2746-4.4751,3.287
			c0.7427,0.8468,2.655-0.4036,3.6453,1.3941c-2.4724,0.6841-4.2826,2.2416-5.0861,4.9413
			C718.4631,412.887,719.3104,409.7127,719.0193,406.0732z"/>
		<path class="st136" d="M768.9693,405.6861c3.186,2.4642,1.3882,5.2269,2.2885,7.9626c0.6285,1.177,2.722-0.4749,3.8474,1.281
			c-1.951,2.1587-4.3982,0.6369-6.9524,1.1601C768.1329,412.553,767.5456,409.384,768.9693,405.6861z"/>
		<path class="st137" d="M778.5818,413.7729c0.665,0.2687,1.2828,0.3226,1.896-0.116c1.1561-1.2985-0.3708-3.2736,1.0714-4.5352
			c1.5315,1.5947,1.5315,1.5947,1.1149,6.3859c-0.7853,0.8752-1.841,0.3952-2.7757,0.4894
			c-0.7978,0.0803-1.6101,0.0166-2.2805,0.0166c-1.8602-2.8411-1.8602-2.8411-0.9938-6.835
			c1.0718-0.2005,1.3873,0.3802,1.4882,1.3282C778.2196,411.6071,777.6932,412.8174,778.5818,413.7729z"/>
		<path class="st138" d="M754.449,416.2671c-2.54-1.5119-0.386-3.9618-2.2968-5.2512c-2.5418,0.823,0.0126,3.8164-2.2786,5.0621
			c-1.7225-1.9052-0.465-4.2725-1.0225-6.5297c1.9988-0.5636,4.1126-1.4146,5.5144,0.369
			C755.7188,411.6393,755.2921,413.8911,754.449,416.2671z"/>
		<path class="st139" d="M786.3112,411.4459c-0.4421,0.5991-0.4119,1.3532-0.0131,2.0686c1.2797,1.3058,2.0038-0.994,3.1476-0.3081
			c0.8818,0.5147,0.6199,1.3264,0.4164,2.1267c-3.7614,0.9419-5.2429,0.6279-5.8373-1.2377
			c-0.5847-1.835,0.127-4.1577,1.4824-4.8379c1.646-0.8261,3.0322-0.1651,4.3659,2.075
			C788.7158,413.0097,787.5917,410.1719,786.3112,411.4459z"/>
		<path class="st134" d="M735.9826,414.0206c-1.9534-0.9429-0.5847-2.7019-0.989-4.0254c2.4426-1.5841,2.8903-1.5001,5.1096,0.9587
			c0.5242,0.7006,0.5211,1.3925-0.0345,2.0751l-0.0524,0.0443c-0.968,0.9395-2.1652,1.0579-3.4236,0.9569
			C736.3895,414.028,736.186,414.0243,735.9826,414.0206z"/>
		<path class="st140" d="M742.0912,406.0565c0.4827,0.0529,0.9655,0.1059,1.6635,0.1825c0,3.0701,0,6.123,0,9.2099
			c-0.3878,0.7006-1.0983,0.4781-1.7165,0.5375C740.8907,412.6702,741.1591,409.3616,742.0912,406.0565z"/>
		<path class="st141" d="M698.2014,415.8687c-1.3265-3.2402-1.625-6.4819-0.3096-10.8255
			C699.8513,409.3579,698.8024,412.6291,698.2014,415.8687z"/>
		<path class="st142" d="M745.2139,416.1975c-0.4572-3.8849,0.033-6.987,0.4991-10.7765
			C747.7336,409.651,747.5163,414.3065,745.2139,416.1975z"/>
		<path class="st143" d="M742.0912,406.0565c-0.0176,3.3099-0.0353,6.6199-0.053,9.9298c-0.9973-0.1399-1.1244-0.8361-1.0469-1.6525
			c0.0671-0.7057-0.2386-1.1362-0.9228-1.3049c0.0115-0.6917,0.0231-1.3834,0.0345-2.0751c1.5676-0.5163,0.7179-1.819,0.8732-2.7765
			C741.1151,407.3218,740.6841,406.2266,742.0912,406.0565z"/>
		<path class="st144" d="M701.6908,406.2045c1.7604,1.082,1.4777,2.3596,0.6682,3.9255
			C700.0047,409.106,701.2641,407.5411,701.6908,406.2045z"/>
		<path class="st134" d="M736.9944,415.9519c-0.3372-0.6438-0.6745-1.2876-1.0118-1.9313l0.049-0.0458
			c1.3204-0.6793,2.6418-0.689,3.9642-0.0056C739.6277,415.5872,738.5842,416.183,736.9944,415.9519z"/>
		<path class="st143" d="M739.9958,413.9691c-1.3214,0.0019-2.6428,0.0038-3.9642,0.0056c0.9375-2.0276,2.6791-0.5008,3.9847-0.9015
			C740.0202,413.3721,740.0134,413.6707,739.9958,413.9691z"/>
		<path class="st145" d="M588.9492,413.9168c-3.4387,2.9344-4.2936,2.9736-8.0828-0.0618
			c-1.2755,1.0483-2.4288,2.6137-4.5364,2.1969c-1.9017-0.3761-2.5944-1.792-3.3885-3.0603
			c2.2899-4.8976,3.6065-5.208,7.8507-1.8908c1.6029-0.3608,2.4144-2.5624,4.6101-2.1964c1.5127,0.2522,2.1331,1.4809,3.3874,2.0381
			c1.1644,0.0258,1.1086-1.4722,1.8358-1.7419c1.8091,0,3.42,0,5.2144,0c0,2.8024,0,5.4042,0,8.1236
			c-1.3577,0.9829-2.6414,2.2206-4.7465,1.3113C589.1102,417.7789,589.9874,415.7096,588.9492,413.9168z"/>
		<path class="st146" d="M566.2089,413.5766c1.2711,0.5453,2.2308,0.5204,3.4288,0.1897c0.0626-1.0911-1.8769-0.6839-1.4499-2.1623
			c0.7177-1.4511,2.1624-0.1469,3.038-0.6136c1.1899,0.9982,1.0248,2.1918,0.7368,2.9774c-1.2452,3.3965-4.1274,1.603-6.3449,2.0646
			c-1.9863-2.2-3.4069-4.2248-2.0186-7.192c0.8808-1.8825,2.2979-2.7174,4.2324-2.8211c2.3445-0.1256,3.5125,1.2368,4.2419,3.3346
			c-2.0989,1.4328-2.6013-1.0787-3.9842-1.2208C566.4791,408.156,565.9518,409.5551,566.2089,413.5766z"/>
		<path class="st147" d="M616.7684,410.4686c2.5945,0.559,2.5229,2.1475,2.2394,3.6017c-0.2324,1.1917-1.1478,1.9589-2.4891,1.9573
			c-1.9324-0.0023-4.0983,0.4161-4.513-2.4339c1.6135-1.8394,3.221,2.002,4.7595-0.1169c-0.4751-1.5377-2.0294-1.1767-3.1697-1.6705
			c-1.5852-0.6865-1.975-2.1967-1.5489-3.7495c0.5465-1.9909,2.2075-2.1244,3.9473-2.0655c1.7175,0.0581,2.8143,0.7939,3.0237,2.547
			C619.1375,409.5429,618.3629,409.9136,616.7684,410.4686z"/>
		<path class="st148" d="M626.9062,413.0154c1.1859-0.7287,2.4232-1.336,4.1539-1.2607c-1.0709-1.0956-2.3793-0.1917-3.0827-1.5277
			c0.9699-2.1671,3.0671-1.5797,4.4117-0.9738c2.7962,1.26,1.1023,4.0343,1.738,6.088c-2.9505,1.7393-5.4942,0.0623-8.0956-0.2971
			c-1.4507-0.2073-3.3663,0.8428-4.2147-1.7192C623.4441,411.6265,625.0946,411.5872,626.9062,413.0154z"/>
		<path class="st149" d="M653.392,416.4278c-2.4297-1.6447-0.5049-4.0038-2.1977-5.3942c-2.642,0.7518-0.0834,3.7419-2.0464,4.843
			c-0.9256,0.0945-1.2355-0.5351-1.2332-1.4877c0.0062-2.6439,0.0021-5.2877,0.0021-8.6578
			c2.1033,1.9617,3.3926,3.9681,5.8743,3.786C653.9801,412.106,654.2936,414.024,653.392,416.4278z"/>
		<path class="st150" d="M604.1088,408.988c1.9274,0.0829,3.3981,1.3937,2.7748,3.1298c-0.3988,1.1108,0.4034,2.4185-0.7665,3.3135
			c-0.7297,0.5582-1.492,0.6363-2.3217,0.5975c-2.1606-0.1008-2.9409-1.0984-2.8867-3.6672
			C600.9605,409.9047,601.9194,408.8938,604.1088,408.988z"/>
		<path class="st151" d="M626.9062,413.0154c-1.542,0.096-3.1276-0.3654-4.6793,0.2848c0.5304,0.8009,0.7063,2.0482,2.0648,1.0285
			c0.8635-0.6482,1.4561-0.2471,1.7398,0.7155c-3.3025,1.4814-3.3025,1.4814-6.0958-2.1049
			c0.2114-2.1521,1.3809-3.877,3.5829-3.8447C625.6268,409.1253,627.0927,410.5671,626.9062,413.0154z"/>
		<path class="st139" d="M639.9778,410.0275c1.2032-0.4125,2.2148-1.3284,3.6718-1.0665c1.5026,0.2701,2.1957,1.0164,2.3388,2.2909
			c-1.4312,1.4465-2.23-0.716-3.3945-0.0629c-0.8682,0.7609-0.7051,1.6367-0.1411,2.5032c1.2307,0.9438,1.9607-1.2171,3.2131-0.3743
			c0.6799,0.6358,0.4307,1.3899,0.067,2.1398c-1.6358,1.4534-5.2869,0.5137-5.6776-1.5566
			c-0.2399-1.2716-0.0281-2.6285-0.0191-3.9471L639.9778,410.0275z"/>
		<path class="st140" d="M598.8599,406.1826c1.1439,3.2569,1.7388,6.514,0.1418,10.7994
			C597.2034,412.6715,598.1163,409.4154,598.8599,406.1826z"/>
		<path class="st152" d="M640.0363,409.9541c-1.0095,0.1483-1.4189,1.4466-2.4221,1.1682c-1.274,1.5202,0.153,3.4741-1.1904,4.7653
			c-1.0988,0.0831-1.4515-0.5116-1.447-1.4696c0.0078-1.6274,0.0021-3.2549,0.0021-5.2665c1.876,0.1783,3.5933-1.0058,4.999,0.8761
			L640.0363,409.9541z"/>
		<path class="st153" d="M1289.981,26.45c1.1454-0.47,1.7688-0.5552,2.7773,0.0154c-0.196,1.2212-0.5476,2.7769,0.613,4.2307
			c1.8717-2.8915,4.6249-1.3867,7.6224-1.7286c0,2.2512,0.1075,4.1948-0.0266,6.1214c-0.1754,2.5164-1.8167,3.9783-4.1345,3.9192
			c-2.1162-0.0539-2.3502-0.4676-2.1885-3.3645c0.0212-0.3805-0.4796-0.7901-0.9816-1.5575
			c-0.9677,0.7081-1.403,2.8187-3.4631,1.5175C1289.5979,32.7943,1290.2344,29.6956,1289.981,26.45z"/>
		<path class="st154" d="M1282.9611,32.0355c-0.6388-0.939-1.2776-1.8779-1.9434-2.8566c0.8223-2.3604,2.3746-3.4015,4.9001-3.2234
			c1.5028,0.106,3.2123,0.8505,2.8821,2.0069c-0.6475,2.2686,0.8434,4.3257,0.0764,6.4173
			c-0.2054,0.5604-0.783,1.2069-1.3273,1.3794c-1.7531,0.5554-3.6029,0.6808-5.2843-0.2008
			c-0.8931-0.4682-1.4337-1.3754-1.1892-2.5115c0.2362-1.0971,1.1484-0.9973,1.952-1.0833c0.278,0.256,0.4662,0.4081,0.5645,0.4562
			C1283.4714,32.3809,1283.2611,32.2528,1282.9611,32.0355z"/>
		<path class="st155" d="M1302.7976,36.2003c-0.4296-0.6045-0.7725-0.8643-0.7797-1.1331
			c-0.0482-1.8086-0.0251-3.6192-0.0251-5.4138c1.7412-1.3151,3.604-0.203,5.0497-0.7284c2.9293,1.7697,1.4956,4.2905,1.8771,6.2088
			c-0.7604,1.0482-1.55,0.9261-2.3894,0.6825c-1.2579-1.3146,0.1927-3.2293-0.934-4.5498
			C1302.9181,31.827,1305.0795,35.0002,1302.7976,36.2003z"/>
		<path class="st155" d="M1316.8988,29.1275c2.2047,0,3.8218,0,5.4939,0c2.5524,1.6086,1.158,4.1056,1.5233,6.0215
			c-0.7893,1.0394-1.5701,0.9207-2.401,0.6479c-1.244-1.3059,0.2295-3.2189-0.9373-4.5242
			c-2.658,0.5741-0.4929,3.7546-2.8835,4.9796C1316.4015,33.9907,1317.2415,31.7381,1316.8988,29.1275z"/>
		<path class="st156" d="M1315.7385,35.9177c-0.9102,0-1.5427,0-2.4465,0c0-3.173,0-6.2524,0-9.4138
			c0.5779-0.7385,1.3658-0.5643,2.4465-0.2096C1315.7385,29.28,1315.7385,32.3597,1315.7385,35.9177z"/>
		<path class="st157" d="M749.0392,246.3651c0.829,6.2053-3.1152,11.7193-10.4917,13.2951
			c-2.8148,0.6013-5.5468-0.6781-7.7568-2.3835c-7.8077-6.0251-7.616-17.0479,0.4718-22.7901
			c6.8776-4.883,16.9688,0.218,17.7621,8.8486C749.1307,244.4895,749.0392,245.662,749.0392,246.3651z"/>
		<path class="st0" d="M984,322.2839c0,10.9279,0,21.5723,0,32.2167c0,1.6444,0,3.2888,0,5.2154c-194.6208,0-389.0261,0-583.7157,0
			c0-12.3327,0-24.7394,0-37.4321C594.6209,322.2839,789.0261,322.2839,984,322.2839z"/>
		<path class="st158" d="M701.9902,246.1173c-0.0179,7.6463-4.8754,13.6499-12.5834,13.5495
			c-8.0733-0.1052-12.4739-6.4269-12.4074-13.7352c0.0675-7.416,5.48-13.0327,12.5911-13.0099
			C696.6343,232.9442,701.9931,238.6469,701.9902,246.1173z"/>
		<path class="st159" d="M641.5,232.9133c7.059,0.0011,12.4451,5.6713,12.4943,13.1026c0.048,7.2472-4.4455,13.6559-12.5009,13.6471
			c-8.0759-0.0088-12.546-6.4076-12.4914-13.6535C629.058,238.574,634.4365,232.9122,641.5,232.9133z"/>
		<path class="st160" d="M787.4473,245.2014c-0.6698-5.514,1.657-9.5144,6.5027-11.6346c4.4526-1.9482,8.9291-0.7128,12.3751,3.7725
			C799.9769,239.9831,793.7604,242.5721,787.4473,245.2014z"/>
		<path class="st161" d="M552.9148,459.9741c-0.7319,1.8233-1.2385,3.6061-3.3608,3.9763c-4.5619-2.6728-4.6091-4.4881-0.232-7.5995
			C550.9506,456.9367,551.9402,458.1924,552.9148,459.9741z"/>
		<path class="st162" d="M715.8554,462.2331c-1.0293,1.6598-1.9979,2.2644-3.5502,1.3325
			C712.8703,461.7811,714.1274,461.8685,715.8554,462.2331z"/>
		<path class="st163" d="M1189.0571,30.4644c1.0677-0.7275,1.8951-0.2338,2.4983,0.6295c1.0942,1.5659,0.1482,2.7434-0.8909,3.8618
			c-1.0702-0.0729-1.7229-0.5401-1.6733-1.7171C1189.0302,32.3146,1189.0364,31.3892,1189.0571,30.4644z"/>
		<path class="st164" d="M582.0393,464.1809c-2.3322-2.6008-2.3322-2.6008-0.3002-5.0638
			C584.6683,461.1725,584.6416,461.1832,582.0393,464.1809z"/>
		<path class="st165" d="M758.9471,463.9014c-2.5585-2.392-2.5756-2.404,0.0974-4.7797
			C761.4338,461.5641,761.4338,461.5641,758.9471,463.9014z"/>
		<path class="st166" d="M641.7935,460.4817c1.18-2.5619,2.0383-1.1237,3.0226,0.0748
			C643.7551,461.1662,642.8387,461.0982,641.7935,460.4817z"/>
		<path class="st166" d="M608.8322,460.5927c-1.1626,0.5146-1.9361,0.4674-2.7172,0.0931
			C606.9166,458.9686,606.9166,458.9686,608.8322,460.5927z"/>
		<path class="st166" d="M816.748,460.6289c-0.9825,0.4746-1.8978,0.5926-2.936-0.2881
			C815.0118,458.4835,815.8884,459.022,816.748,460.6289z"/>
		<path class="st167" d="M791.6675,460.6026c-1.2525,0.5052-2.3113,0.6255-3.3806-0.0355
			C789.2232,458.8761,790.2312,458.3985,791.6675,460.6026z"/>
		<path class="st167" d="M770.6262,460.61c-1.0955,0.5121-2.1761,0.5768-3.3829-0.0076
			C768.4209,458.627,769.5011,458.5224,770.6262,460.61z"/>
		<path class="st168" d="M658.1628,459.125c1.7205,0.5543,2.2346,1.7829,1.6736,3.3865c-0.441,1.2606-1.3945,1.7117-2.6835,1.0363
			C656.934,461.9467,656.6339,460.327,658.1628,459.125z"/>
		<path class="st169" d="M1181.0105,34.9931c-0.0153-0.6725-0.0305-1.3449-0.0459-2.0174c1.236,0.2858,2.5911-0.3834,3.7333,0.4394
			C1184.0356,35.2817,1182.4517,34.9665,1181.0105,34.9931z"/>
		<path class="st170" d="M524.9307,459.0098c1.11,0.063,2.2865-0.0056,2.729,1.3779c-2.1823,0.4961-2.1823,0.4961-2.6476-1.4572
			L524.9307,459.0098z"/>
		<path class="st171" d="M674.9192,459.0028c1.0391,0.2212,2.3579-0.1336,2.7831,1.3515c-2.1653,0.5512-2.1653,0.5512-2.6983-1.4346
			L674.9192,459.0028z"/>
		<path class="st172" d="M695.1421,458.8685c2.2057,2.7621,2.2057,2.7621,0.0734,5.0392
			C692.5045,461.7057,692.5045,461.7057,695.1421,458.8685z"/>
		<path class="st172" d="M625.1,458.8688c2.2517,2.7247,2.2517,2.7247,0.1499,5.0396
			C622.491,461.7469,622.491,461.7469,625.1,458.8688z"/>
		<path class="st173" d="M1138.9458,33.0419c0.9209,0.1574,1.9142-0.3144,2.7955,0.3203c-0.118,1.1622-0.8574,1.6787-1.9032,1.5134
			c-1.1261-0.1779-0.7075-1.2053-0.7971-1.929L1138.9458,33.0419z"/>
		<path class="st174" d="M1198.9718,29.9378c0.2714,2.244-0.9288,2.3507-2.6537,1.7827c0.1187-1.8872,1.5717-1.5691,2.7443-1.6943
			L1198.9718,29.9378z"/>
		<path class="st175" d="M531.987,458.9823c1.0102-0.0026,2.0204-0.0052,3.0306-0.0079c-0.0557,1.1301-0.0687,2.1792-1.7556,2.0359
			C531.7643,460.8831,532.1981,459.7849,531.987,458.9823z"/>
		<path class="st176" d="M91.4975,1047.1923c2.1093,1.5581,2.1353,3.0719-0.0164,4.6095
			C89.3727,1050.2361,89.3828,1048.7225,91.4975,1047.1923z"/>
		<path class="st177" d="M89.9641,1053.0305c0.905,0,1.8101,0,2.7151,0c-1.0383,1.0427-2.0254,1.606-2.657-0.0659L89.9641,1053.0305
			z"/>
		<path class="st178" d="M127.6626,1049.4537c2.3069-0.5944,3.9139-1.0311,5.0727,1.0459
			c-0.9264,0.5337-1.8584,1.0706-2.5703,1.4806C128.7409,1051.6045,128.3255,1050.7761,127.6626,1049.4537z"/>
		<path class="st179" d="M128.0446,1045.6755c1.2619-1.2198,2.4801-0.5704,3.6165-0.5111c0.6674,1.8429-0.5945,2.1621-1.4968,2.7043
			C128.8497,1047.6333,128.131,1046.9294,128.0446,1045.6755z"/>
		<path class="st180" d="M1326.5177,1047.1108c2.1001,1.6918,2.1448,3.1193,0.0298,4.7247
			C1324.6115,1050.3799,1324.2966,1048.9572,1326.5177,1047.1108z"/>
		<path class="st181" d="M1324.9631,1053.0331c0.9176,0,1.8352,0,2.7527,0c-1.0591,1.1235-2.0303,1.5251-2.693-0.0674
			L1324.9631,1053.0331z"/>
		<path class="st182" d="M1152.072,1047.6641c0-0.9099,0-1.5358,0-2.1611c1.3444-0.6902,2.5466-0.7507,3.8314,0.1969
			C1155.6184,1047.8915,1154.3036,1048.2612,1152.072,1047.6641z"/>
		<path class="st183" d="M214.8588,1048.7042c-1.1329,0.3392-1.7447,0.4344-2.348,0.0297
			c-0.2052-0.9775,0.5829-1.6031,0.8932-2.4177C214.3597,1046.7791,214.1281,1047.9369,214.8588,1048.7042z"/>
		<path class="st184" d="M34.1929,1048.4669c-0.2515-1.202,0.5462-1.7168,1.4236-2.1896
			C35.9138,1048.5753,35.9138,1048.5753,34.1929,1048.4669z"/>
		<path class="st185" d="M1310.0259,1051.9893c-2.3208-2.0905-2.3208-2.0905-0.4493-5.0597
			c0.8077,1.8527,0.4347,3.5005,0.4084,5.099L1310.0259,1051.9893z"/>
		<path class="st186" d="M1301.1576,1048.6356c0.7559-1.4071,1.469-2.0442,2.5465-0.1863
			C1302.9894,1049.4847,1302.1277,1048.937,1301.1576,1048.6356z"/>
		<path class="st187" d="M43.4674,1047.1417c1.8829,2.7505,1.8829,2.7505-0.8356,4.8569
			C41.7275,1050.2617,41.2621,1048.731,43.4674,1047.1417z"/>
		<path class="st188" d="M1174.1089,1050.5804c0.8242-0.7974,1.7086-0.7366,2.6376-0.1975
			C1175.0513,1052.0538,1175.0513,1052.0538,1174.1089,1050.5804z"/>
		<path class="st189" d="M222.4731,1051.8667c-3.1193-1.8745-3.1193-1.8745-0.822-4.5889
			C223.6019,1048.5211,223.341,1050.0953,222.4731,1051.8667z"/>
		<path class="st190" d="M55.9342,1048.0021c1.083-1.5383,1.8957-0.9087,2.8858,0.7231
			C57.7324,1048.8242,56.8355,1049.692,55.9342,1048.0021z"/>
		<path class="st190" d="M1232.625,1048.0751c1.7598-1.6108,2.4526-0.6222,3.1068,0.5691
			C1234.7893,1049.1653,1233.8879,1049.2421,1232.625,1048.0751z"/>
		<path class="st190" d="M163.8831,1048.6896c-1.2797,0.2699-2.2936,0.849-2.7944-0.4994c-0.0806-0.217,0.1124-0.7012,0.3228-0.8339
			C162.6714,1046.5618,163.0853,1047.6683,163.8831,1048.6896z"/>
		<path class="st191" d="M229.3569,1047.1399c0.744,0.6095,1.5837,1.1432,1.5862,2.2802c0.0029,1.3119-0.7496,2.0336-1.8545,2.5006
			C226.2521,1049.4586,226.2719,1049.1306,229.3569,1047.1399z"/>
		<path class="st192" d="M760.0768,414.366c-1.4437-1.4108-1.446-2.3437-0.3391-3.4065
			C761.6569,411.7079,761.1985,412.7402,760.0768,414.366z"/>
		<path class="st1" d="M729.3132,413.4762c0.4424-0.5393,1.0442-0.5537,1.2752-0.1238c0.3734,0.695-0.3224,0.63-0.7035,0.5829
			C729.6754,413.9094,729.497,413.6326,729.3132,413.4762z"/>
		<path class="st193" d="M593.723,411.1319c0.5753,2.3652-0.0292,3.2427-2.3846,2.6214
			C590.7864,411.9135,590.9288,410.7061,593.723,411.1319z"/>
		<path class="st194" d="M584.9052,410.6532c1.4664,1.394,1.5012,2.3271,0.3207,3.396
			C583.3101,413.2953,583.7308,412.265,584.9052,410.6532z"/>
		<path class="st194" d="M576.9611,410.4725c0.8565,2.1048,0.8565,2.1048-0.0582,3.6451
			C575.5696,413.1139,575.8259,412.1407,576.9611,410.4725z"/>
		<path class="st3" d="M603.1819,413.5091c0.5633-0.5616,1.1152-0.5427,1.6561,0.0327
			C604.2754,414.0694,603.7218,414.1353,603.1819,413.5091z"/>
		<path class="st195" d="M1297.2556,34.2092c-1.6495-1.1299-1.5023-2.0669-0.5186-3.2192
			C1298.605,31.5746,1298.0817,32.7039,1297.2556,34.2092z"/>
		<path class="st4" d="M1282.9611,32.0355c1.5239-0.1845,2.5382,0.8307,3.9742,1.4589c-2.1779,1.0485-3.2054,0.1182-3.9077-1.5308
			L1282.9611,32.0355z"/>
		<path class="st196" d="M961.0211,337.4251c0-1.3307-0.1282-2.6771,0.0315-3.9883c0.2149-1.7652,1.4077-2.4828,3.1473-2.4309
			c1.5625,0.0466,2.64,0.8617,2.7228,2.3317c0.1588,2.8183,0.1843,5.6634-0.0278,8.4752c-0.1085,1.4377-1.2894,2.1716-2.8466,2.1961
			c-1.5587,0.0246-2.6807-0.6902-2.9435-2.1046c-0.2689-1.4467-0.0596-2.9824-0.0596-4.4791
			C961.037,337.4251,961.0291,337.4251,961.0211,337.4251z"/>
		<path class="st197" d="M960.1641,344.7152c5.4012,2.4703,5.8401,1.4221,9.6681-3.6623c1.5714,0.1494,1.3792,1.4541,0.9771,2.1577
			c-1.3041,2.2817-2.9415,4.3179-5.7578,4.881c-0.7004,0.508-1.4011,0.508-2.1021,0.0013c-1.3499-0.1451-2.443-0.7146-3.1575-1.9101
			C959.4871,345.5849,959.6112,345.0957,960.1641,344.7152z"/>
		<path class="st198" d="M409.7958,332.535c0,5.594,0,11.1881,0,16.7821c-0.2311,0.0204-0.4621,0.0408-0.6932,0.0612
			c-0.0377-1.7673-0.0905-3.5344-0.1089-5.3019c-0.0189-1.8271-0.0561-3.6566,0.0099-5.4815
			C409.075,336.6227,408.6919,334.6224,409.7958,332.535z"/>
		<path class="st199" d="M960.1641,344.7152c-0.124,0.4892-0.248,0.9784-0.3721,1.4677c-1.5998-1.3269-3.5325-2.511-2.1994-5.4828
			C959.1633,341.7967,959.8339,343.136,960.1641,344.7152z"/>
		<path class="st200" d="M962.9495,348.093c0.7007-0.0004,1.4014-0.0009,2.1021-0.0013c-0.2804,0.9692,0.5957,2.3677-1.0513,2.8651
			C962.3531,350.4608,963.2299,349.0618,962.9495,348.093z"/>
	</g>
</g>
</svg>
